<svg id="Ebene_1" data-name="Ebene 1" xmlns="http://www.w3.org/2000/svg" viewBox="0 0 200 200"><title>Brainy</title><polyline points="107.01 56.21 102.59 56.21 96.81 62.57 96.81 105.72" style="fill:#87a4d6"/><ellipse cx="110.89" cy="56.16" rx="3.87" ry="4.27" style="fill:#87a4d6"/><ellipse cx="120.8" cy="72.1" rx="3.87" ry="4.27" style="fill:#87a4d6"/><ellipse cx="130.91" cy="88.84" rx="3.87" ry="4.27" style="fill:#87a4d6"/><polyline points="96.81 77.94 107.01 77.94 112.32 72.1 116.93 72.1" style="fill:#87a4d6"/><polyline points="96.81 102.78 104.61 102.78 117.28 88.84 127.03 88.84" style="fill:#87a4d6"/><polyline points="107.01 155.56 102.59 155.56 96.81 149.2 96.81 106.05" style="fill:#87a4d6"/><ellipse cx="110.89" cy="155.61" rx="3.87" ry="4.27" style="fill:#87a4d6"/><ellipse cx="125.81" cy="139.66" rx="3.87" ry="4.27" style="fill:#87a4d6"/><ellipse cx="135.91" cy="122.93" rx="3.87" ry="4.27" style="fill:#87a4d6"/><polyline points="96.81 133.82 112.02 133.82 117.32 139.66 121.94 139.66" style="fill:#87a4d6"/><polyline points="96.81 108.99 109.62 108.99 122.28 122.93 132.04 122.93" style="fill:#87a4d6"/><polyline points="74.93 56.21 79.8 56.21 86.16 62.57 86.16 105.72" style="fill:#87a4d6"/><circle cx="70.66" cy="56.16" r="4.27" style="fill:#87a4d6"/><circle cx="59.75" cy="72.1" r="4.27" style="fill:#87a4d6"/><circle cx="48.62" cy="88.84" r="4.27" style="fill:#87a4d6"/><polyline points="86.16 77.94 74.93 77.94 69.09 72.1 64.01 72.1" style="fill:#87a4d6"/><polyline points="86.16 102.78 77.57 102.78 63.63 88.84 52.89 88.84" style="fill:#87a4d6"/><polyline points="74.93 155.56 79.8 155.56 86.16 149.2 86.16 106.05" style="fill:#87a4d6"/><circle cx="70.66" cy="155.61" r="4.27" style="fill:#87a4d6"/><circle cx="54.23" cy="139.66" r="4.27" style="fill:#87a4d6"/><circle cx="43.11" cy="122.93" r="4.27" style="fill:#87a4d6"/><polyline points="86.16 133.82 69.42 133.82 63.58 139.66 58.5 139.66" style="fill:#87a4d6"/><polyline points="86.16 108.99 72.06 108.99 58.12 122.93 47.38 122.93" style="fill:#87a4d6"/><path d="M96.81,166.4c0,9.76,7.43,17.68,16.59,17.68S130,176.16,130,166.4a18.85,18.85,0,0,0-.43-3.93,14.3,14.3,0,0,0,4.16.63c8.43,0,15.26-7.29,15.26-16.27a16.9,16.9,0,0,0-.7-4.86,22.46,22.46,0,0,0,13.63-21c0-10.46-6.72-19.23-15.81-21.73a16.31,16.31,0,0,0,9.36-15c0-8.33-5.87-15.18-13.45-16.14a17.23,17.23,0,0,0,.6-4.47c0-9-6.84-16.26-15.27-16.26-.28,0-.56,0-.84.05a17.15,17.15,0,0,0,.84-5.3c0-9-6.83-16.26-15.26-16.26S96.81,33.14,96.81,42.12Z" style="fill:#87a4d6"/><path d="M86.08,166.4a17.68,17.68,0,1,1-34.89-3.93A16.26,16.26,0,0,1,31.24,142a22.45,22.45,0,0,1,2.33-42.73A16.26,16.26,0,0,1,37.92,68.1,16.25,16.25,0,0,1,53.55,47.37c.3,0,.6,0,.9.05a16.26,16.26,0,1,1,31.63-5.3Z" style="fill:#87a4d6"/><polyline points="116.46 46.85 111.66 46.85 105.4 53.75 105.4 100.55" style="fill:none;stroke:#fff;stroke-linecap:round;stroke-linejoin:round;stroke-width:2px"/><ellipse cx="120.66" cy="46.8" rx="4.2" ry="4.63" style="fill:none;stroke:#fff;stroke-linecap:round;stroke-linejoin:round;stroke-width:2px"/><ellipse cx="131.42" cy="64.09" rx="4.2" ry="4.63" style="fill:none;stroke:#fff;stroke-linecap:round;stroke-linejoin:round;stroke-width:2px"/><ellipse cx="142.38" cy="82.24" rx="4.2" ry="4.63" style="fill:none;stroke:#fff;stroke-linecap:round;stroke-linejoin:round;stroke-width:2px"/><polyline points="105.4 70.42 116.46 70.42 122.22 64.09 127.22 64.09" style="fill:none;stroke:#fff;stroke-linecap:round;stroke-linejoin:round;stroke-width:2px"/><polyline points="105.4 97.36 113.86 97.36 127.59 82.24 138.18 82.24" style="fill:none;stroke:#fff;stroke-linecap:round;stroke-linejoin:round;stroke-width:2px"/><polyline points="116.46 154.6 111.66 154.6 105.4 147.7 105.4 100.9" style="fill:none;stroke:#fff;stroke-linecap:round;stroke-linejoin:round;stroke-width:2px"/><ellipse cx="120.66" cy="154.66" rx="4.2" ry="4.63" style="fill:none;stroke:#fff;stroke-linecap:round;stroke-linejoin:round;stroke-width:2px"/><ellipse cx="136.85" cy="137.36" rx="4.2" ry="4.63" style="fill:none;stroke:#fff;stroke-linecap:round;stroke-linejoin:round;stroke-width:2px"/><ellipse cx="147.81" cy="119.21" rx="4.2" ry="4.63" style="fill:none;stroke:#fff;stroke-linecap:round;stroke-linejoin:round;stroke-width:2px"/><polyline points="105.4 131.03 121.89 131.03 127.65 137.36 132.65 137.36" style="fill:none;stroke:#fff;stroke-linecap:round;stroke-linejoin:round;stroke-width:2px"/><polyline points="105.4 104.1 119.29 104.1 133.02 119.22 143.61 119.22" style="fill:none;stroke:#fff;stroke-linecap:round;stroke-linejoin:round;stroke-width:2px"/><polyline points="81.67 46.85 86.95 46.85 93.84 53.75 93.84 100.55" style="fill:none;stroke:#fff;stroke-linecap:round;stroke-linejoin:round;stroke-width:2px"/><circle cx="77.04" cy="46.8" r="4.63" style="fill:none;stroke:#fff;stroke-linecap:round;stroke-linejoin:round;stroke-width:2px"/><circle cx="65.2" cy="64.09" r="4.63" style="fill:none;stroke:#fff;stroke-linecap:round;stroke-linejoin:round;stroke-width:2px"/><circle cx="53.14" cy="82.24" r="4.63" style="fill:none;stroke:#fff;stroke-linecap:round;stroke-linejoin:round;stroke-width:2px"/><polyline points="93.84 70.42 81.67 70.42 75.33 64.09 69.83 64.09" style="fill:none;stroke:#fff;stroke-linecap:round;stroke-linejoin:round;stroke-width:2px"/><polyline points="93.84 97.36 84.53 97.36 69.41 82.24 57.76 82.24" style="fill:none;stroke:#fff;stroke-linecap:round;stroke-linejoin:round;stroke-width:2px"/><polyline points="81.67 154.6 86.95 154.6 93.84 147.7 93.84 100.9" style="fill:none;stroke:#fff;stroke-linecap:round;stroke-linejoin:round;stroke-width:2px"/><circle cx="77.04" cy="154.66" r="4.63" style="fill:none;stroke:#fff;stroke-linecap:round;stroke-linejoin:round;stroke-width:2px"/><circle cx="59.22" cy="137.36" r="4.63" style="fill:none;stroke:#fff;stroke-linecap:round;stroke-linejoin:round;stroke-width:2px"/><circle cx="47.16" cy="119.21" r="4.63" style="fill:none;stroke:#fff;stroke-linecap:round;stroke-linejoin:round;stroke-width:2px"/><polyline points="93.84 131.03 75.69 131.03 69.35 137.36 63.85 137.36" style="fill:none;stroke:#fff;stroke-linecap:round;stroke-linejoin:round;stroke-width:2px"/><polyline points="93.84 104.1 78.55 104.1 63.43 119.21 51.78 119.21" style="fill:none;stroke:#fff;stroke-linecap:round;stroke-linejoin:round;stroke-width:2px"/><path d="M105.4,166.36c0,10.59,8,19.17,18,19.17s18-8.58,18-19.17a20.59,20.59,0,0,0-.46-4.26,15.61,15.61,0,0,0,4.5.68c9.15,0,16.56-7.9,16.56-17.64a18.72,18.72,0,0,0-.76-5.28c8.63-3.49,14.78-12.35,14.78-22.77,0-11.35-7.29-20.85-17.15-23.57A17.67,17.67,0,0,0,169,77.25c0-9-6.37-16.46-14.59-17.5a18.8,18.8,0,0,0,.65-4.85c0-9.74-7.41-17.63-16.56-17.63-.31,0-.61,0-.91,0a18.81,18.81,0,0,0,.91-5.75c0-9.74-7.41-17.64-16.55-17.64s-16.56,7.9-16.56,17.64Z" style="fill:none;stroke:#52646d;stroke-miterlimit:10;stroke-width:2px"/><path d="M93.76,166.36a19.17,19.17,0,0,1-38.34,0,18.74,18.74,0,0,1,.5-4.26,17.65,17.65,0,0,1-21.64-22.24,24.34,24.34,0,0,1,2.53-46.34,17.63,17.63,0,0,1,4.72-33.77A17.6,17.6,0,0,1,58.48,37.27c.33,0,.65,0,1,0a17.44,17.44,0,0,1-1-5.75,17.64,17.64,0,1,1,35.28,0Z" style="fill:none;stroke:#52646d;stroke-miterlimit:10;stroke-width:2px"/></svg>