<svg  data-name="Ebene 1" xmlns="http://www.w3.org/2000/svg" xmlns:xlink="http://www.w3.org/1999/xlink" viewBox="0 0 872.22 679.31"><defs><linearGradient id="Unbenannter_Verlauf_16" x1="1183.95" y1="4823.76" x2="1272.91" y2="4823.76" gradientUnits="userSpaceOnUse"><stop offset="0.21" stop-color="#fff" stop-opacity="0"/><stop offset="0.43" stop-color="#d5dadc" stop-opacity="0.24"/><stop offset="0.89" stop-color="#6c7b83" stop-opacity="0.85"/><stop offset="1" stop-color="#52646d"/></linearGradient><linearGradient id="Unbenannter_Verlauf_25" x1="1208.82" y1="5154.39" x2="1281.01" y2="5226.57" gradientUnits="userSpaceOnUse"><stop offset="0.21" stop-color="#fff" stop-opacity="0"/><stop offset="0.34" stop-color="#f2f4f4" stop-opacity="0.14"/><stop offset="0.64" stop-color="#d2d7d9" stop-opacity="0.51"/><stop offset="1" stop-color="#a8b1b6"/></linearGradient><linearGradient id="Unbenannter_Verlauf_21" x1="1184.4" y1="5035.06" x2="1371.86" y2="5035.06" gradientUnits="userSpaceOnUse"><stop offset="0.21" stop-color="#fff" stop-opacity="0"/><stop offset="0.33" stop-color="#f0f9f9" stop-opacity="0.13"/><stop offset="0.59" stop-color="#cae9ea" stop-opacity="0.45"/><stop offset="0.97" stop-color="#8dcfd3" stop-opacity="0.96"/><stop offset="1" stop-color="#88cdd1"/></linearGradient></defs><title>XAIN Website Graphics</title><g style="opacity:0.5"><circle cx="1750.36" cy="4933.07" r="67.03" transform="translate(-1423.75 -4413.58) rotate(-5.65)" style="fill:none;stroke:#88cdd1;stroke-linecap:round;stroke-linejoin:round;stroke-width:2px;stroke-dasharray:6.074636936187744,10.124395370483398"/></g><polyline points="578.84 339.89 494.11 424.62 412.58 424.62" style="fill:none;stroke:#88cdd1;stroke-linecap:round;stroke-linejoin:round;stroke-width:2px;stroke-dasharray:6,10;opacity:0.5"/><line x1="737.15" y1="323.01" x2="649.32" y2="323.01" style="fill:none;stroke:#88cdd1;stroke-linecap:round;stroke-linejoin:round;stroke-width:2px;stroke-dasharray:6,10;opacity:0.5"/><ellipse cx="84.97" cy="140.83" rx="5.06" ry="9.53" style="fill:none;stroke:#c1d7f1;stroke-linecap:round;stroke-linejoin:round;stroke-width:3px"/><ellipse cx="110.73" cy="108.37" rx="5.06" ry="9.53" style="fill:none;stroke:#c1d7f1;stroke-linecap:round;stroke-linejoin:round;stroke-width:3px"/><polyline points="105.54 134.31 110.73 131.3 110.73 150.36" style="fill:none;stroke:#c1d7f1;stroke-linecap:round;stroke-linejoin:round;stroke-width:3px"/><line x1="107.08" y1="150.36" x2="114.38" y2="150.36" style="fill:none;stroke:#c1d7f1;stroke-linecap:round;stroke-linejoin:round;stroke-width:3px"/><polyline points="105.54 69.38 110.73 66.37 110.73 85.44" style="fill:none;stroke:#c1d7f1;stroke-linecap:round;stroke-linejoin:round;stroke-width:3px"/><line x1="107.08" y1="85.44" x2="114.38" y2="85.44" style="fill:none;stroke:#c1d7f1;stroke-linecap:round;stroke-linejoin:round;stroke-width:3px"/><polyline points="105.54 166.77 110.73 163.76 110.73 182.83" style="fill:none;stroke:#c1d7f1;stroke-linecap:round;stroke-linejoin:round;stroke-width:3px"/><line x1="107.08" y1="182.83" x2="114.38" y2="182.83" style="fill:none;stroke:#c1d7f1;stroke-linecap:round;stroke-linejoin:round;stroke-width:3px"/><ellipse cx="85.04" cy="173.29" rx="5.06" ry="9.53" style="fill:none;stroke:#c1d7f1;stroke-linecap:round;stroke-linejoin:round;stroke-width:3px"/><polyline points="79.85 201.63 85.04 198.62 85.04 217.69" style="fill:none;stroke:#c1d7f1;stroke-linecap:round;stroke-linejoin:round;stroke-width:3px"/><line x1="81.39" y1="217.69" x2="88.68" y2="217.69" style="fill:none;stroke:#c1d7f1;stroke-linecap:round;stroke-linejoin:round;stroke-width:3px"/><polyline points="242.56 301.7 230.68 301.7 215.16 318.79 215.16 434.72" style="fill:#87a4d6"/><ellipse cx="252.97" cy="301.56" rx="10.41" ry="11.46" style="fill:#87a4d6"/><ellipse cx="279.62" cy="344.4" rx="10.41" ry="11.46" style="fill:#87a4d6"/><ellipse cx="306.76" cy="389.36" rx="10.41" ry="11.46" style="fill:#87a4d6"/><polyline points="215.16 360.09 242.56 360.09 256.81 344.4 269.21 344.4" style="fill:#87a4d6"/><polyline points="215.16 426.81 236.12 426.81 270.14 389.36 296.35 389.36" style="fill:#87a4d6"/><polyline points="242.56 568.61 230.68 568.61 215.16 551.53 215.16 435.59" style="fill:#87a4d6"/><ellipse cx="252.97" cy="568.75" rx="10.41" ry="11.46" style="fill:#87a4d6"/><ellipse cx="293.07" cy="525.91" rx="10.41" ry="11.46" style="fill:#87a4d6"/><ellipse cx="320.21" cy="480.96" rx="10.41" ry="11.46" style="fill:#87a4d6"/><polyline points="215.16 510.22 256.01 510.22 270.27 525.91 282.66 525.91" style="fill:#87a4d6"/><polyline points="215.16 443.5 249.57 443.5 283.59 480.95 309.8 480.95" style="fill:#87a4d6"/><polyline points="156.37 301.7 169.45 301.7 186.53 318.78 186.53 434.72" style="fill:#87a4d6"/><circle cx="144.91" cy="301.56" r="11.46" style="fill:#87a4d6"/><circle cx="115.57" cy="344.4" r="11.46" style="fill:#87a4d6"/><circle cx="85.7" cy="389.36" r="11.46" style="fill:#87a4d6"/><polyline points="186.53 360.09 156.37 360.09 140.68 344.4 127.03 344.4" style="fill:#87a4d6"/><polyline points="186.53 426.81 163.46 426.81 126.01 389.36 97.16 389.36" style="fill:#87a4d6"/><polyline points="156.37 568.61 169.45 568.61 186.53 551.53 186.53 435.59" style="fill:#87a4d6"/><circle cx="144.91" cy="568.75" r="11.46" style="fill:#87a4d6"/><circle cx="100.76" cy="525.91" r="11.46" style="fill:#87a4d6"/><circle cx="70.88" cy="480.95" r="11.46" style="fill:#87a4d6"/><polyline points="186.53 510.22 141.56 510.22 125.87 525.91 112.22 525.91" style="fill:#87a4d6"/><polyline points="186.53 443.5 148.65 443.5 111.2 480.95 82.34 480.95" style="fill:#87a4d6"/><path d="M1161.33,5207.81c0,26.22,20,47.48,44.57,47.48s44.56-21.26,44.56-47.48a51.08,51.08,0,0,0-1.14-10.57,38.55,38.55,0,0,0,11.16,1.68c22.65,0,41-19.56,41-43.69a46.44,46.44,0,0,0-1.87-13.07c21.38-8.64,36.6-30.6,36.6-56.4,0-28.11-18.06-51.66-42.47-58.39,14.78-6.6,25.16-22.16,25.16-40.3,0-22.37-15.79-40.79-36.14-43.36a46.34,46.34,0,0,0,1.6-12c0-24.13-18.36-43.69-41-43.69-.77,0-1.52.08-2.27.12a46.31,46.31,0,0,0,2.27-14.24c0-24.13-18.36-43.69-41-43.69s-41,19.56-41,43.69Z" transform="translate(-946.17 -4610.06)" style="fill:#87a4d6"/><path d="M1132.49,5207.81a47.48,47.48,0,1,1-93.73-10.57,43.67,43.67,0,0,1-53.59-55.08,60.29,60.29,0,0,1,6.25-114.79,43.68,43.68,0,0,1,11.7-83.66,43.6,43.6,0,0,1,42-55.69c.82,0,1.62.08,2.42.12a43.68,43.68,0,1,1,85-14.24Z" transform="translate(-946.17 -4610.06)" style="fill:#87a4d6"/><path d="M1272.76,4849.35c.1-1.25.15-2.51.15-3.79,0-26.17-19.91-47.38-44.48-47.38s-44.48,21.21-44.48,47.38v3.79Z" transform="translate(-946.17 -4610.06)" style="fill:url(#Unbenannter_Verlauf_16)"/><rect x="556.15" y="167.38" width="79.15" height="165.14" rx="7.05" style="fill:none;stroke:#a8b1b6;stroke-miterlimit:10;stroke-width:2px"/><rect x="562.34" y="173.91" width="66.12" height="151.07" rx="5.89" style="fill:#52646d"/><path d="M1569.82,4777.44h10.79a7.05,7.05,0,0,1,7.05,7.05v151.05a7,7,0,0,1-7.05,7h-10.79" transform="translate(-946.17 -4610.06)" style="fill:none;stroke:#a8b1b6;stroke-miterlimit:10;stroke-width:2px"/><line x1="635.29" y1="178.26" x2="641.48" y2="178.26" style="fill:none;stroke:#a8b1b6;stroke-miterlimit:10;stroke-width:2px"/><line x1="635.29" y1="317.27" x2="641.48" y2="317.27" style="fill:none;stroke:#a8b1b6;stroke-miterlimit:10;stroke-width:2px"/><path d="M1549.34,4710.21c0,5.67,4.31,10.26,9.62,10.26s9.63-4.59,9.63-10.26a10.76,10.76,0,0,0-.25-2.28,8.37,8.37,0,0,0,2.41.36c4.89,0,8.86-4.22,8.86-9.43a9.71,9.71,0,0,0-.41-2.82,13,13,0,0,0,7.91-12.19,12.9,12.9,0,0,0-9.17-12.6,9.47,9.47,0,0,0,5.43-8.71,9.24,9.24,0,0,0-7.81-9.36,9.64,9.64,0,0,0,.35-2.59c0-5.22-4-9.44-8.86-9.44l-.49,0a9.79,9.79,0,0,0,.49-3.08c0-5.21-4-9.43-8.85-9.43a9.15,9.15,0,0,0-8.86,9.43Z" transform="translate(-946.17 -4610.06)" style="fill:none;stroke:#52646d;stroke-linecap:round;stroke-linejoin:round;stroke-width:2px"/><path d="M1543.11,4710.21a10.26,10.26,0,1,1-20.24-2.28,9.43,9.43,0,0,1-12-9.07,9.39,9.39,0,0,1,.43-2.82,13,13,0,0,1,1.35-24.79,9.44,9.44,0,0,1,2.53-18.07,9.65,9.65,0,0,1-.37-2.59,9.44,9.44,0,0,1,9.44-9.44l.52,0a9.53,9.53,0,0,1-.52-3.08,9.44,9.44,0,0,1,18.87,0Z" transform="translate(-946.17 -4610.06)" style="fill:none;stroke:#52646d;stroke-linecap:round;stroke-linejoin:round;stroke-width:2px"/><path d="M1510.73,4669.9a9.47,9.47,0,0,0,2.25,1.35,13,13,0,0,0-1.36,24.79,9.72,9.72,0,0,0-.43,2.82,9.43,9.43,0,0,0,12,9.07,10.16,10.16,0,0,0-.27,2.28,10.26,10.26,0,1,0,20.51,0V4669.9Z" transform="translate(-946.17 -4610.06)" style="fill:#52646d"/><path d="M1549.67,4696.23v14c0,5.67,4.31,10.26,9.63,10.26s9.62-4.59,9.62-10.26a10.76,10.76,0,0,0-.25-2.28,8.42,8.42,0,0,0,2.41.36c4.89,0,8.86-4.22,8.86-9.43a10.24,10.24,0,0,0-.35-2.63Z" transform="translate(-946.17 -4610.06)" style="fill:#52646d"/><circle cx="598.31" cy="134.93" r="5.75" style="fill:#52646d"/><circle cx="598.31" cy="153.36" r="3.55" style="fill:#52646d"/><rect x="754.31" y="440.39" width="90.31" height="188.43" rx="8.04" style="fill:none;stroke:#a8b1b6;stroke-miterlimit:10;stroke-width:2px"/><rect x="761.37" y="447.84" width="75.44" height="172.38" rx="6.72" style="fill:#88cdd1"/><path d="M1777.5,5050.46h12.31a8,8,0,0,1,8,8v172.34a8,8,0,0,1-8,8.05H1777.5" transform="translate(-946.17 -4610.06)" style="fill:none;stroke:#a8b1b6;stroke-miterlimit:10;stroke-width:2px"/><line x1="844.62" y1="452.8" x2="851.68" y2="452.8" style="fill:none;stroke:#a8b1b6;stroke-miterlimit:10;stroke-width:2px"/><line x1="844.62" y1="611.42" x2="851.68" y2="611.42" style="fill:none;stroke:#a8b1b6;stroke-miterlimit:10;stroke-width:2px"/><path d="M1754.13,4973.74c0,6.46,4.92,11.7,11,11.7s11-5.24,11-11.7a12.4,12.4,0,0,0-.28-2.6,9.68,9.68,0,0,0,2.75.41c5.58,0,10.11-4.82,10.11-10.76a11.41,11.41,0,0,0-.46-3.23,15.16,15.16,0,0,0-1.45-28.28,10.8,10.8,0,0,0,6.2-9.93,10.55,10.55,0,0,0-8.9-10.69,11.49,11.49,0,0,0,.39-3c0-5.94-4.52-10.76-10.11-10.76l-.56,0a11.27,11.27,0,0,0,.56-3.51c0-5.95-4.52-10.77-10.1-10.77s-10.11,4.82-10.11,10.77Z" transform="translate(-946.17 -4610.06)" style="fill:none;stroke:#88cdd1;stroke-linecap:round;stroke-linejoin:round;stroke-width:2px"/><path d="M1747,4973.74a11.7,11.7,0,0,1-23.4,0,11.21,11.21,0,0,1,.31-2.6,11,11,0,0,1-2.94.41,10.78,10.78,0,0,1-10.27-14,14.85,14.85,0,0,1,1.54-28.28,11.65,11.65,0,0,1-6.61-9.93,10.81,10.81,0,0,1,9.49-10.69,10.75,10.75,0,0,1,10.35-13.72c.2,0,.4,0,.6,0a10.76,10.76,0,1,1,20.93-3.51Z" transform="translate(-946.17 -4610.06)" style="fill:none;stroke:#88cdd1;stroke-linecap:round;stroke-linejoin:round;stroke-width:2px"/><path d="M1710.07,4927.75a10.92,10.92,0,0,0,2.57,1.53,14.85,14.85,0,0,0-1.54,28.28,10.78,10.78,0,0,0,10.27,14,10.86,10.86,0,0,0,2.93-.41,11.7,11.7,0,1,0,23.1,2.6v-46Z" transform="translate(-946.17 -4610.06)" style="fill:#88cdd1"/><path d="M1754.51,4957.78v16c0,6.46,4.92,11.7,11,11.7s11-5.24,11-11.7a12.4,12.4,0,0,0-.28-2.6,9.68,9.68,0,0,0,2.75.41c5.58,0,10.11-4.82,10.11-10.76a11.45,11.45,0,0,0-.41-3Z" transform="translate(-946.17 -4610.06)" style="fill:#88cdd1"/><circle cx="802.42" cy="403.36" r="6.56" style="fill:#88cdd1"/><circle cx="802.42" cy="424.39" r="4.05" style="fill:#88cdd1"/><path d="M1539.62,4874a5,5,0,1,1-10,0,5.78,5.78,0,0,1,.13-1.19,4.37,4.37,0,0,1-1.26.19,4.79,4.79,0,0,1-4.63-4.93,5.57,5.57,0,0,1,.21-1.48,6.79,6.79,0,0,1-4.12-6.36,6.72,6.72,0,0,1,4.79-6.58,5,5,0,0,1-2.84-4.55,4.83,4.83,0,0,1,4.07-4.89,5.51,5.51,0,0,1-.18-1.36,4.78,4.78,0,0,1,4.63-4.92h.26a5,5,0,0,1-.26-1.61,4.63,4.63,0,1,1,9.25,0Z" transform="translate(-946.17 -4610.06)" style="fill:none;stroke:#fff;stroke-linecap:round;stroke-linejoin:round;stroke-width:2px"/><path d="M1542.88,4874a5.36,5.36,0,1,0,10.71,0,5.17,5.17,0,0,0-.14-1.19,5,5,0,0,0,1.34.19,4.93,4.93,0,0,0,4.93-4.93,5.2,5.2,0,0,0-.22-1.48,6.8,6.8,0,0,0-.71-12.94,4.93,4.93,0,0,0-1.32-9.44,5.08,5.08,0,0,0,.19-1.36,4.92,4.92,0,0,0-4.93-4.92h-.27a4.73,4.73,0,0,0,.27-1.61,4.93,4.93,0,0,0-9.85,0Z" transform="translate(-946.17 -4610.06)" style="fill:none;stroke:#fff;stroke-linecap:round;stroke-linejoin:round;stroke-width:2px"/><rect x="600.28" y="548.71" width="62.11" height="129.6" rx="5.53" style="fill:none;stroke:#a8b1b6;stroke-miterlimit:10;stroke-width:2px"/><rect x="605.14" y="553.82" width="51.89" height="118.56" rx="4.62" style="fill:#a8b1b6"/><path d="M1599.42,5158.77h8.47a5.53,5.53,0,0,1,5.54,5.53v118.53a5.54,5.54,0,0,1-5.54,5.54h-8.47" transform="translate(-946.17 -4610.06)" style="fill:none;stroke:#a8b1b6;stroke-miterlimit:10;stroke-width:2px"/><line x1="662.39" y1="557.24" x2="667.25" y2="557.24" style="fill:none;stroke:#a8b1b6;stroke-miterlimit:10;stroke-width:2px"/><line x1="662.39" y1="666.34" x2="667.25" y2="666.34" style="fill:none;stroke:#a8b1b6;stroke-miterlimit:10;stroke-width:2px"/><path d="M1583.35,5106a7.57,7.57,0,1,0,15.11,0,8.21,8.21,0,0,0-.2-1.8,6.34,6.34,0,0,0,1.9.29,7.19,7.19,0,0,0,6.95-7.41,7.67,7.67,0,0,0-.32-2.21,10.44,10.44,0,0,0-1-19.46,7.42,7.42,0,0,0,4.26-6.83,7.26,7.26,0,0,0-6.13-7.35,7.48,7.48,0,0,0,.28-2,7.19,7.19,0,0,0-7-7.4l-.38,0a7.71,7.71,0,0,0,.38-2.42,7,7,0,1,0-13.9,0Z" transform="translate(-946.17 -4610.06)" style="fill:none;stroke:#a8b1b6;stroke-linecap:round;stroke-linejoin:round;stroke-width:2px"/><path d="M1578.46,5106a8,8,0,0,1-16.09,0,8.21,8.21,0,0,1,.21-1.8,7.1,7.1,0,0,1-2,.29,7.4,7.4,0,0,1-7.06-9.62,10.22,10.22,0,0,1,1.06-19.46,7.4,7.4,0,0,1,2-14.18,7.11,7.11,0,0,1-.29-2,7.4,7.4,0,0,1,7.4-7.4l.41,0a7.4,7.4,0,1,1,14.4-2.42Z" transform="translate(-946.17 -4610.06)" style="fill:none;stroke:#a8b1b6;stroke-linecap:round;stroke-linejoin:round;stroke-width:2px"/><path d="M1553.05,5074.37a7,7,0,0,0,1.77,1.05,10.22,10.22,0,0,0-1.06,19.46,7.4,7.4,0,0,0,7.06,9.62,7.1,7.1,0,0,0,2-.29,8.21,8.21,0,0,0-.21,1.8,8,8,0,0,0,16.09,0v-31.64Z" transform="translate(-946.17 -4610.06)" style="fill:#a8b1b6"/><path d="M1583.61,5095v11a7.57,7.57,0,1,0,15.11,0,8.21,8.21,0,0,0-.2-1.8,6.34,6.34,0,0,0,1.9.29,7.19,7.19,0,0,0,6.95-7.41,7.76,7.76,0,0,0-.28-2.06Z" transform="translate(-946.17 -4610.06)" style="fill:#a8b1b6"/><circle cx="633.37" cy="523.24" r="4.51" style="fill:#a8b1b6"/><circle cx="633.37" cy="537.7" r="2.79" style="fill:#a8b1b6"/><path d="M1575.73,5234.55a4,4,0,1,1-7.89,0,4.23,4.23,0,0,1,.1-.94,3.3,3.3,0,0,1-1,.15,3.76,3.76,0,0,1-3.63-3.87,4,4,0,0,1,.17-1.15,5.34,5.34,0,0,1-3.24-5,5.27,5.27,0,0,1,3.76-5.16,3.89,3.89,0,0,1-2.23-3.57,3.79,3.79,0,0,1,3.2-3.84,4.11,4.11,0,0,1-.14-1.06,3.75,3.75,0,0,1,3.63-3.87h.2a4.05,4.05,0,0,1-.2-1.26,3.64,3.64,0,1,1,7.26,0Z" transform="translate(-946.17 -4610.06)" style="fill:none;stroke:#fff;stroke-linecap:round;stroke-linejoin:round;stroke-width:2px"/><path d="M1578.28,5234.55a4.21,4.21,0,1,0,8.3-.94,3.65,3.65,0,0,0,1.05.15,3.87,3.87,0,0,0,3.87-3.87,3.64,3.64,0,0,0-.18-1.15,5.33,5.33,0,0,0-.55-10.16,3.87,3.87,0,0,0-1-7.41,3.73,3.73,0,0,0,.16-1.06,3.87,3.87,0,0,0-3.87-3.87h-.22a3.79,3.79,0,0,0,.22-1.26,3.87,3.87,0,1,0-7.74,0Z" transform="translate(-946.17 -4610.06)" style="fill:none;stroke:#fff;stroke-linecap:round;stroke-linejoin:round;stroke-width:2px"/><path d="M1742.17,5159.6a5.25,5.25,0,1,1-10.48,0,6.28,6.28,0,0,1,.13-1.24,4.66,4.66,0,0,1-1.31.2,5,5,0,0,1-4.82-5.14,5.17,5.17,0,0,1,.22-1.54,7.1,7.1,0,0,1-4.31-6.64,7,7,0,0,1,5-6.86,5.16,5.16,0,0,1-3-4.75,5,5,0,0,1,4.25-5.1,5.45,5.45,0,0,1-.19-1.41,5,5,0,0,1,4.82-5.14l.27,0a5.47,5.47,0,0,1-.27-1.68,4.83,4.83,0,1,1,9.65,0Z" transform="translate(-946.17 -4610.06)" style="fill:none;stroke:#fff;stroke-linecap:round;stroke-linejoin:round;stroke-width:2px"/><path d="M1745.57,5159.6a5.59,5.59,0,1,0,11-1.24,5.44,5.44,0,0,0,1.4.2,5.16,5.16,0,0,0,4.91-6.68,7.09,7.09,0,0,0-.74-13.5,5.14,5.14,0,0,0-1.38-9.85,5.06,5.06,0,0,0,.21-1.41,5.14,5.14,0,0,0-5.14-5.14l-.29,0a5.2,5.2,0,0,0,.29-1.68,5.14,5.14,0,1,0-10.28,0Z" transform="translate(-946.17 -4610.06)" style="fill:none;stroke:#fff;stroke-linecap:round;stroke-linejoin:round;stroke-width:2px"/><g style="opacity:0.30000000000000004"><circle cx="599.94" cy="62.52" r="61.52" style="fill:none;stroke:#52646d;stroke-linecap:round;stroke-linejoin:round;stroke-width:2px;stroke-dasharray:6.038476943969727,10.064128875732422"/></g><g style="opacity:0.5"><circle cx="633.51" cy="467.97" r="45.92" style="fill:none;stroke:#a8b1b6;stroke-linecap:round;stroke-linejoin:round;stroke-width:2px;stroke-dasharray:6.009078502655029,10.015130996704102"/></g><g style="opacity:0.30000000000000004"><line x1="538.43" y1="62.52" x2="535.43" y2="62.52" style="fill:none;stroke:#52646d;stroke-linecap:round;stroke-linejoin:round;stroke-width:2px"/><line x1="525.15" y1="62.52" x2="480.99" y2="62.52" style="fill:none;stroke:#52646d;stroke-linecap:round;stroke-linejoin:round;stroke-width:2px;stroke-dasharray:6.162478446960449,10.270797729492188"/><polyline points="475.86 62.52 472.86 62.52 470.73 64.64" style="fill:none;stroke:#52646d;stroke-linecap:round;stroke-linejoin:round;stroke-width:2px"/><line x1="463.8" y1="71.57" x2="334.21" y2="201.16" style="fill:none;stroke:#52646d;stroke-linecap:round;stroke-linejoin:round;stroke-width:2px;stroke-dasharray:5.880572319030762,9.80095386505127"/><line x1="330.74" y1="204.63" x2="328.62" y2="206.75" style="fill:none;stroke:#52646d;stroke-linecap:round;stroke-linejoin:round;stroke-width:2px"/></g><path d="M1184.4,5178.81v28.9a54.15,54.15,0,0,0,4.15,20.87h88.37a54.09,54.09,0,0,0,2.9-32.34,42,42,0,0,0,12.11,1.82c14.68,0,27.68-7.57,35.78-19.25Z" transform="translate(-946.17 -4610.06)" style="fill:url(#Unbenannter_Verlauf_25)"/><polyline points="587.59 467.97 562.34 467.97 429.05 601.26 334.9 601.26" style="fill:none;stroke:#a8b1b6;stroke-linecap:round;stroke-linejoin:round;stroke-width:2px;stroke-dasharray:6,10;opacity:0.5"/><path d="M1371.86,5057.9c-5.76-22.19-22.23-39.62-43.11-45.67H1184.4v45.67Z" transform="translate(-946.17 -4610.06)" style="fill:url(#Unbenannter_Verlauf_21)"/><polyline points="267.95 276.56 255.06 276.56 238.23 295.09 238.23 420.83" style="fill:none;stroke:#fff;stroke-linecap:round;stroke-linejoin:round;stroke-width:3px"/><ellipse cx="279.24" cy="276.41" rx="11.29" ry="12.43" style="fill:none;stroke:#fff;stroke-linecap:round;stroke-linejoin:round;stroke-width:3px"/><ellipse cx="308.14" cy="322.87" rx="11.29" ry="12.43" style="fill:none;stroke:#fff;stroke-linecap:round;stroke-linejoin:round;stroke-width:3px"/><ellipse cx="337.57" cy="371.63" rx="11.29" ry="12.43" style="fill:none;stroke:#fff;stroke-linecap:round;stroke-linejoin:round;stroke-width:3px"/><polyline points="238.23 339.89 267.95 339.89 283.41 322.87 296.85 322.87" style="fill:none;stroke:#fff;stroke-linecap:round;stroke-linejoin:round;stroke-width:3px"/><polyline points="238.23 412.25 260.96 412.25 297.86 371.63 326.28 371.63" style="fill:none;stroke:#fff;stroke-linecap:round;stroke-linejoin:round;stroke-width:3px"/><polyline points="267.95 566.04 255.06 566.04 238.23 547.51 238.23 421.77" style="fill:none;stroke:#fff;stroke-linecap:round;stroke-linejoin:round;stroke-width:3px"/><ellipse cx="279.24" cy="566.19" rx="11.29" ry="12.43" style="fill:none;stroke:#fff;stroke-linecap:round;stroke-linejoin:round;stroke-width:3px"/><ellipse cx="322.73" cy="519.73" rx="11.29" ry="12.43" style="fill:none;stroke:#fff;stroke-linecap:round;stroke-linejoin:round;stroke-width:3px"/><ellipse cx="352.17" cy="470.97" rx="11.29" ry="12.43" style="fill:none;stroke:#fff;stroke-linecap:round;stroke-linejoin:round;stroke-width:3px"/><polyline points="238.23 502.71 282.54 502.71 298 519.73 311.44 519.73" style="fill:none;stroke:#fff;stroke-linecap:round;stroke-linejoin:round;stroke-width:3px"/><polyline points="238.23 430.35 275.55 430.35 312.45 470.97 340.88 470.97" style="fill:none;stroke:#fff;stroke-linecap:round;stroke-linejoin:round;stroke-width:3px"/><polyline points="174.47 276.56 188.66 276.56 207.18 295.09 207.18 420.83" style="fill:none;stroke:#fff;stroke-linecap:round;stroke-linejoin:round;stroke-width:3px"/><circle cx="162.04" cy="276.41" r="12.43" style="fill:none;stroke:#fff;stroke-linecap:round;stroke-linejoin:round;stroke-width:3px"/><circle cx="130.22" cy="322.87" r="12.43" style="fill:none;stroke:#fff;stroke-linecap:round;stroke-linejoin:round;stroke-width:3px"/><circle cx="97.82" cy="371.63" r="12.43" style="fill:none;stroke:#fff;stroke-linecap:round;stroke-linejoin:round;stroke-width:3px"/><polyline points="207.18 339.89 174.47 339.89 157.45 322.87 142.65 322.87" style="fill:none;stroke:#fff;stroke-linecap:round;stroke-linejoin:round;stroke-width:3px"/><polyline points="207.18 412.25 182.16 412.25 141.54 371.63 110.25 371.63" style="fill:none;stroke:#fff;stroke-linecap:round;stroke-linejoin:round;stroke-width:3px"/><polyline points="174.47 566.04 188.66 566.04 207.18 547.51 207.18 421.77" style="fill:none;stroke:#fff;stroke-linecap:round;stroke-linejoin:round;stroke-width:3px"/><circle cx="162.04" cy="566.19" r="12.43" style="fill:none;stroke:#fff;stroke-linecap:round;stroke-linejoin:round;stroke-width:3px"/><circle cx="114.16" cy="519.73" r="12.43" style="fill:none;stroke:#fff;stroke-linecap:round;stroke-linejoin:round;stroke-width:3px"/><circle cx="81.76" cy="470.97" r="12.43" style="fill:none;stroke:#fff;stroke-linecap:round;stroke-linejoin:round;stroke-width:3px"/><polyline points="207.18 502.71 158.41 502.71 141.39 519.73 126.59 519.73" style="fill:none;stroke:#fff;stroke-linecap:round;stroke-linejoin:round;stroke-width:3px"/><polyline points="207.18 430.35 166.1 430.35 125.48 470.97 94.19 470.97" style="fill:none;stroke:#fff;stroke-linecap:round;stroke-linejoin:round;stroke-width:3px"/><path d="M1184.4,5207.71c0,28.43,21.64,51.49,48.34,51.49s48.33-23.06,48.33-51.49a55.36,55.36,0,0,0-1.24-11.47,41.84,41.84,0,0,0,12.1,1.82c24.57,0,44.48-21.21,44.48-47.38a50.1,50.1,0,0,0-2-14.18c23.19-9.37,39.7-33.19,39.7-61.17,0-30.49-19.59-56-46.07-63.32,16-7.16,27.29-24,27.29-43.71,0-24.27-17.12-44.24-39.2-47a50.12,50.12,0,0,0,1.75-13c0-26.17-19.92-47.39-44.48-47.39-.84,0-1.65.08-2.47.13a49.93,49.93,0,0,0,2.47-15.44c0-26.17-19.92-47.38-44.49-47.38s-44.48,21.21-44.48,47.38Z" transform="translate(-946.17 -4610.06)" style="fill:none;stroke:#52646d;stroke-miterlimit:10;stroke-width:3px"/><path d="M1153.12,5207.71a51.49,51.49,0,1,1-101.65-11.47,47.39,47.39,0,0,1-58.13-59.74,65.39,65.39,0,0,1,6.79-124.49,47.37,47.37,0,0,1,12.68-90.74,47.3,47.3,0,0,1,45.54-60.4c.88,0,1.75.08,2.62.13a47.37,47.37,0,1,1,92.15-15.44Z" transform="translate(-946.17 -4610.06)" style="fill:none;stroke:#52646d;stroke-miterlimit:10;stroke-width:3px"/><circle cx="321.65" cy="213.72" r="9.86" style="fill:#fff;stroke:#52646d;stroke-miterlimit:10;stroke-width:3px"/><circle cx="413.58" cy="424.62" r="9.86" style="fill:#fff;stroke:#88cdd1;stroke-miterlimit:10;stroke-width:3px"/><circle cx="334.9" cy="601.26" r="9.86" style="fill:#fff;stroke:#a8b1b6;stroke-miterlimit:10;stroke-width:3px"/></svg>