<?xml version="1.0" encoding="utf-8"?>
<!-- Generator: Adobe Illustrator 24.2.1, SVG Export Plug-In . SVG Version: 6.00 Build 0)  -->
<svg version="1.1" xmlns="http://www.w3.org/2000/svg" xmlns:xlink="http://www.w3.org/1999/xlink" x="0px" y="0px"
	 viewBox="0 0 595.28 262.25" style="enable-background:new 0 0 595.28 262.25;" xml:space="preserve">
<style type="text/css">
	.st0{fill:#243564;}
	.st1{fill:#534998;}
	.st2{fill:#E61975;}
	.st3{fill:#20A186;}
	.st4{fill:#F29104;}
</style>
<g id="Xayn">
	<g>
		<path class="st0" d="M295.12,162.31c-1.12,0.02-1.72-0.39-2.27-1.32c-5.81-9.6-11.66-16.64-17.5-26.22
			c-0.28-0.45-0.58-0.89-1.01-1.55c-0.84,1.36-1.55,2.51-2.25,3.65c-5.39,8.84-10.79,15.14-16.13,24.01
			c-0.54,0.89-1.5,1.44-2.54,1.42l-11.85-0.02c-1.25,0-2-1.38-1.32-2.43l25.12-38.67c0.54-0.87,0.54-2,0-2.87l-23.43-36.14
			c-0.69-1.07,0.07-2.48,1.35-2.48l11.89-0.02c1.06-0.03,1.61,0.36,2.14,1.23c5.31,8.78,10.67,15.01,16.01,23.77
			c0.28,0.46,0.59,0.91,1.02,1.58c0.39-0.59,0.7-1.01,0.97-1.45c5.39-8.82,10.78-15.09,16.13-23.94c0.44-0.74,1.24-1.2,2.1-1.19
			c3.86,0.05,7.72,0.03,11.75,0.03c1.4,0,2.25,1.55,1.49,2.72l-23.34,35.93c-0.65,1.06-0.61,1.79,0.03,2.83l24.87,38.46
			c0.71,1.09-0.07,2.53-1.37,2.55L295.12,162.31z"/>
		<path class="st0" d="M377.28,162.2h-9.99c-1.08,0-1.96-0.88-1.96-1.96v-6.64c-0.48,0.43-0.7,0.58-0.87,0.78
			c-7.06,8.42-16.28,10.89-26.68,8.95c-13.77-2.56-24.16-14.48-25.44-28.46c-1.04-11.33,2.29-21.09,10.68-28.89
			c10.04-9.35,26.15-10.6,36.7-2.9c1.96,1.43,3.63,3.25,5.54,4.99v-7c0-0.69,0.56-1.26,1.25-1.27l10.76-0.12
			c1.14-0.02,1.58,0.25,1.58,1.5l-0.13,59.57C378.72,161.55,378.08,162.2,377.28,162.2z M325.69,131.06
			c0.04,11.48,8.41,19.94,19.77,19.96c11.39,0.02,19.85-8.54,19.82-20.06c-0.03-11.46-8.44-19.96-19.77-19.98
			C334.12,110.97,325.65,119.55,325.69,131.06z"/>
		<path class="st0" d="M426.89,165.34c-2.37,6.3-5.75,11.97-11.08,16.28c-4.44,3.59-9.17,5.74-16.34,5.73
			c-1.64,0-2.22-1.46-1.79-3.04l0.98-3.64c0.8-2.96,3.14-4.96,5.74-6.58c3.16-1.96,5.61-4.32,7.74-8.74
			c2.67-5.55,1.68-3.55-2.46-14.69l-21.32-48.98c-0.41-0.93,0.28-1.98,1.29-1.98l10.64-0.03c1.19-0.04,2.27,0.65,2.72,1.75
			c5.63,13.83,11.32,27.64,16.99,41.46c0.24,0.58,0.51,1.16,0.94,2.15c0.76-2.09,1.38-3.75,1.97-5.43
			c4.51-12.8,9.04-25.6,13.5-38.42c0.47-1.35,1.11-1.63,2.8-1.46l9.81,0.05c1.13,0.01,1.9,1.13,1.51,2.18L426.89,165.34z"/>
		<path class="st0" d="M504.77,162.19l10.12,0c1.09,0,1.96-0.89,1.97-1.98c0-2.79,0.01-5.48,0-8.16
			c-0.03-10.21,0.03-20.42-0.15-30.63c-0.1-5.62-1.85-10.8-5.47-15.2c-4.68-5.68-10.92-8.04-18.12-8.12
			c-7.71-0.09-14.38,2.22-19.14,8.68c-0.09,0.12-0.28,0.17-0.6,0.36c0-2.15-0.05-4.11,0.02-6.06c0.03-0.78-0.57-1.41-1.35-1.39
			c-3.43,0.06-6.86,0.02-10.29,0.02c-2.92,0-2.08-0.04-2.19,6.77l-0.06,46.28c0,7.22-1.13,9.53,3.43,9.53h7.8
			c1.46,0,2.65-1.18,2.65-2.64l0.03-29.92c0.02-2.4,0.17-4.85,0.68-7.18c1.35-6.17,5.06-10.26,11.41-11.38
			c2.53-0.45,5.26-0.41,7.77,0.04c1.86,0.34,3.67,1.04,5.16,2.2c4.22,3.29,4.85,8.2,4.86,12.91l0.02,34.41
			C503.29,161.53,503.95,162.19,504.77,162.19z"/>
	</g>
</g>
<g id="Signet">
	<g>
		<path class="st1" d="M135.32,73.44l-43.35,0.02c-1.43,0-2.31,1.58-1.56,2.8l20.56,33.28c0.7,1.13,2.32,1.17,3.07,0.07l22.79-33.3
			C137.67,75.1,136.8,73.44,135.32,73.44z"/>
		<path class="st2" d="M101.9,125.44L81.4,92.25c-0.6-0.97-2.09-0.54-2.09,0.59v63.87c0,1.11,1.43,1.55,2.06,0.64l20.48-29.93
			C102.26,126.83,102.28,126.05,101.9,125.44z"/>
		<path class="st3" d="M199.87,73.47l-40.21-0.02c-0.86,0-1.67,0.43-2.16,1.14l-34.84,50.9c-0.59,0.85-0.61,1.97-0.07,2.86
			l39.66,64.19c0.74,1.2,2.31,1.6,3.54,0.89l38.88-22.45c2.97-1.72,4.8-4.89,4.8-8.32V83.07C209.47,77.77,205.17,73.47,199.87,73.47
			z"/>
		<path class="st4" d="M90.5,174.66l51.96,30c1.2,0.69,2.67,0.69,3.86,0l2.3-1.33c0.56-0.33,0.75-1.05,0.4-1.61l-36.33-58.81
			c-0.44-0.71-1.46-0.73-1.93-0.05l-20.63,30.14C89.75,173.57,89.92,174.33,90.5,174.66z"/>
	</g>
</g>
</svg>
