<?xml version="1.0" encoding="utf-8"?>
<!-- Generator: Adobe Illustrator 23.1.1, SVG Export Plug-In . SVG Version: 6.00 Build 0)  -->
<svg version="1.1" id="Ebene_1" xmlns="http://www.w3.org/2000/svg" xmlns:xlink="http://www.w3.org/1999/xlink" x="0px" y="0px"
	 viewBox="0 0 200 200" style="enable-background:new 0 0 200 200;" xml:space="preserve">
<style type="text/css">
	.st0{fill:#264C7E;}
</style>
<g>
	<path class="st0" d="M115.65,64.93c0-1.13-0.92-2.05-2.05-2.05c-1.13,0-2.05,0.92-2.05,2.05s0.92,2.05,2.05,2.05
		C114.73,66.98,115.65,66.06,115.65,64.93z"/>
	<circle class="st0" cx="129.37" cy="88.31" r="2.05"/>
	<path class="st0" d="M123.47,76.34c0-1.13-0.92-2.05-2.05-2.05s-2.05,0.92-2.05,2.05s0.92,2.05,2.05,2.05
		S123.47,77.47,123.47,76.34z"/>
	<path class="st0" d="M127.41,124.68c0-1.13-0.92-2.05-2.05-2.05c-1.13,0-2.05,0.92-2.05,2.05c0,1.13,0.92,2.05,2.05,2.05
		C126.49,126.73,127.41,125.81,127.41,124.68z"/>
	<path class="st0" d="M135.37,112.71c0-1.13-0.92-2.05-2.05-2.05c-1.13,0-2.05,0.92-2.05,2.05c0,1.13,0.92,2.05,2.05,2.05
		C134.45,114.76,135.37,113.84,135.37,112.71z"/>
	<path class="st0" d="M188.78,113.89c-2,0-3.69,1.3-4.32,3.09h-12.23l-7.42-7.42h-12.72c-0.73-6.7-5.57-12.16-11.95-13.81
		c2.35-0.99,4.31-2.72,5.58-4.91h3.12L164,75.7h14.46c0.63,1.79,2.32,3.09,4.32,3.09c2.53,0,4.59-2.06,4.59-4.59
		c0-2.53-2.06-4.59-4.59-4.59c-2,0-3.69,1.3-4.32,3.09h-15.7L147.6,87.85h-0.67c0.23-0.91,0.35-1.85,0.35-2.83
		c0-5.96-4.48-10.86-10.26-11.55c0.29-1.02,0.46-2.09,0.46-3.2c0-6.43-5.21-11.64-11.64-11.64c-0.22,0-0.43,0.02-0.64,0.03
		c0.41-1.19,0.64-2.46,0.64-3.79c0-6.43-5.21-11.64-11.64-11.64c-6.43,0-11.64,5.21-11.64,11.64v13.16l3.78-3.78
		c0.19-0.19,0.44-0.29,0.71-0.29h2.61c0.43-1.77,2.02-3.09,3.92-3.09c2.23,0,4.05,1.82,4.05,4.05c0,2.23-1.82,4.05-4.05,4.05
		c-1.87,0-3.44-1.28-3.9-3.02h-2.22l-3.96,3.96v9.59h6.62l3.89-3.89c0.19-0.19,0.44-0.29,0.71-0.29h2.77
		c0.45-1.75,2.03-3.05,3.91-3.05c2.23,0,4.05,1.82,4.05,4.05c0,2.23-1.82,4.05-4.05,4.05c-1.89,0-3.46-1.3-3.91-3.05h-2.36
		l-3.89,3.89c-0.19,0.19-0.44,0.29-0.71,0.29h-7.04v15.77h4.73l9.68-9.68c0.19-0.19,0.44-0.29,0.71-0.29h6.83
		c0.45-1.75,2.03-3.05,3.91-3.05c2.23,0,4.05,1.82,4.05,4.05s-1.82,4.05-4.05,4.05c-1.89,0-3.46-1.3-3.91-3.05h-6.41l-9.68,9.68
		c-0.19,0.19-0.44,0.29-0.71,0.29h-5.15v1.11c0,0.04-0.02,0.08-0.02,0.12c0,0.04,0.02,0.07,0.02,0.12v1.11h9.09
		c0.27,0,0.52,0.11,0.71,0.29l9.68,9.68h6.41c0.45-1.75,2.03-3.05,3.91-3.05c2.23,0,4.05,1.82,4.05,4.05s-1.82,4.05-4.05,4.05
		c-1.89,0-3.46-1.3-3.91-3.05h-6.83c-0.27,0-0.52-0.11-0.71-0.29l-9.68-9.68h-8.68v15.77h10.98c0.27,0,0.52,0.11,0.71,0.29
		l3.89,3.89h2.36c0.45-1.75,2.02-3.05,3.91-3.05c2.23,0,4.05,1.82,4.05,4.05s-1.82,4.05-4.05,4.05c-1.89,0-3.46-1.3-3.91-3.05h-2.77
		c-0.27,0-0.52-0.11-0.71-0.29l-3.89-3.89h-10.57v9.59l3.96,3.96h2.22c0.46-1.73,2.03-3.01,3.9-3.01c2.23,0,4.05,1.82,4.05,4.05
		s-1.82,4.05-4.05,4.05c-1.9,0-3.49-1.32-3.92-3.09h-2.61c-0.27,0-0.52-0.11-0.71-0.29l-3.78-3.78v10.84
		c0,6.98,5.66,12.65,12.65,12.65c6.98,0,12.65-5.66,12.65-12.65c0-0.97-0.12-1.91-0.33-2.82c1.01,0.28,2.07,0.45,3.17,0.45
		c2.11,0,4.08-0.57,5.78-1.55l7.75,7.75h11.73c0.63,1.79,2.32,3.09,4.32,3.09c2.53,0,4.59-2.06,4.59-4.59s-2.06-4.59-4.59-4.59
		c-2,0-3.69,1.3-4.32,3.09h-10.48l-6.58-6.58c2.13-2.11,3.44-5.03,3.44-8.26c0-1.21-0.19-2.38-0.53-3.48
		c5.69-2.16,9.85-7.44,10.34-13.77h11.42l7.42,7.42h13.48c0.63,1.79,2.32,3.09,4.32,3.09c2.53,0,4.59-2.06,4.59-4.59
		S191.31,113.89,188.78,113.89z M182.77,72.6c0.88,0,1.59,0.71,1.59,1.59s-0.71,1.59-1.59,1.59s-1.59-0.71-1.59-1.59
		S181.9,72.6,182.77,72.6z M158.7,146.06c0.05-0.84,0.73-1.5,1.58-1.5c0.88,0,1.59,0.71,1.59,1.59s-0.71,1.59-1.59,1.59
		c-0.85,0-1.54-0.67-1.58-1.5V146.06z M188.78,120.07c-0.88,0-1.59-0.71-1.59-1.59s0.71-1.59,1.59-1.59s1.59,0.71,1.59,1.59
		S189.66,120.07,188.78,120.07z"/>
	<path class="st0" d="M113.6,138.14c1.13,0,2.05-0.92,2.05-2.05c0-1.13-0.92-2.05-2.05-2.05c-1.13,0-2.05,0.92-2.05,2.05
		C111.55,137.22,112.47,138.14,113.6,138.14z"/>
</g>
<g>
	<path class="st0" d="M94.15,136.76c-0.19,0.19-0.44,0.29-0.71,0.29h-2.61c-0.43,1.77-2.02,3.09-3.92,3.09
		c-2.23,0-4.05-1.82-4.05-4.05s1.82-4.05,4.05-4.05c1.87,0,3.44,1.28,3.9,3.01h2.22l3.96-3.96v-9.59H86.43l-3.89,3.89
		c-0.19,0.19-0.44,0.29-0.71,0.29h-2.77c-0.45,1.75-2.03,3.05-3.91,3.05c-2.23,0-4.05-1.82-4.05-4.05s1.82-4.05,4.05-4.05
		c1.89,0,3.46,1.3,3.91,3.05h2.36l3.89-3.89c0.19-0.19,0.44-0.29,0.71-0.29h10.98v-15.77h-8.68l-9.68,9.68
		c-0.19,0.19-0.44,0.29-0.71,0.29H71.1c-0.45,1.75-2.03,3.05-3.91,3.05c-2.23,0-4.05-1.82-4.05-4.05s1.82-4.05,4.05-4.05
		c1.89,0,3.46,1.3,3.91,3.05h6.41l9.68-9.68c0.19-0.19,0.44-0.29,0.71-0.29h9.09v-1.11c0-0.04,0.02-0.08,0.02-0.12
		c0-0.04-0.02-0.07-0.02-0.12v-1.11h-5.15c-0.27,0-0.52-0.11-0.71-0.29l-9.68-9.68h-6.41c-0.45,1.75-2.03,3.05-3.91,3.05
		c-2.23,0-4.05-1.82-4.05-4.05s1.82-4.05,4.05-4.05c1.89,0,3.46,1.3,3.91,3.05h6.83c0.27,0,0.52,0.11,0.71,0.29l9.68,9.68h4.73
		V81.52h-7.03c-0.27,0-0.52-0.11-0.71-0.29l-3.89-3.89H83c-0.45,1.75-2.03,3.05-3.91,3.05c-2.23,0-4.05-1.82-4.05-4.05
		c0-2.23,1.82-4.05,4.05-4.05c1.89,0,3.46,1.3,3.91,3.05h2.77c0.27,0,0.52,0.11,0.71,0.29l3.89,3.89h6.62v-9.59l-3.96-3.96h-2.22
		c-0.46,1.73-2.03,3.02-3.9,3.02c-2.23,0-4.05-1.82-4.05-4.05c0-2.23,1.82-4.05,4.05-4.05c1.9,0,3.49,1.32,3.92,3.09h2.61
		c0.27,0,0.52,0.11,0.71,0.29l3.78,3.78V54.88c0-6.43-5.21-11.64-11.64-11.64c-6.43,0-11.64,5.21-11.64,11.64
		c0,1.33,0.23,2.6,0.64,3.79c-0.21-0.01-0.43-0.03-0.64-0.03c-4.39,0-8.21,2.44-10.19,6.03l-5.4-5.4h-8.2l-7.43-7.43
		c0.28-0.59,0.45-1.25,0.45-1.94c0-2.53-2.06-4.59-4.59-4.59s-4.59,2.06-4.59,4.59c0,2.53,2.06,4.59,4.59,4.59
		c0.74,0,1.43-0.19,2.05-0.5l8.29,8.28h8.2l5.48,5.48c-0.18,0.81-0.28,1.66-0.28,2.53c0,1.11,0.17,2.18,0.46,3.2
		c-5.77,0.68-10.26,5.59-10.26,11.55c0,4.83,2.95,8.98,7.14,10.73c-6.38,1.65-11.22,7.11-11.95,13.81h-2.19L26.97,90.31H16.54
		c-0.63-1.79-2.32-3.09-4.32-3.09c-2.53,0-4.59,2.06-4.59,4.59c0,2.53,2.06,4.59,4.59,4.59c2,0,3.69-1.3,4.32-3.09h9.19l19.25,19.25
		h3.38c0.49,6.32,4.64,11.61,10.34,13.77c-0.34,1.1-0.53,2.27-0.53,3.48c0,3.02,1.16,5.76,3.04,7.83l-3.48,3.48H41.8l-6.8,6.8
		c-0.66-0.37-1.42-0.6-2.23-0.6c-2.53,0-4.59,2.06-4.59,4.59s2.06,4.59,4.59,4.59c2.53,0,4.59-2.06,4.59-4.59
		c0-0.62-0.13-1.22-0.35-1.76l6.03-6.03h15.92l4.54-4.54c1.82,1.17,3.98,1.86,6.3,1.86c1.1,0,2.16-0.16,3.17-0.45
		c-0.21,0.91-0.33,1.85-0.33,2.82c0,6.98,5.66,12.65,12.65,12.65c6.98,0,12.65-5.66,12.65-12.65v-10.84L94.15,136.76z M39.29,51.49
		c-0.88,0-1.59-0.71-1.59-1.59s0.71-1.59,1.59-1.59s1.59,0.71,1.59,1.59S40.17,51.49,39.29,51.49z M12.22,93.4
		c-0.88,0-1.59-0.71-1.59-1.59s0.71-1.59,1.59-1.59s1.59,0.71,1.59,1.59S13.1,93.4,12.22,93.4z M32.77,153.51
		c-0.88,0-1.59-0.71-1.59-1.59s0.71-1.59,1.59-1.59s1.59,0.71,1.59,1.59S33.64,153.51,32.77,153.51z"/>
	<path class="st0" d="M65.14,112.71c0,1.13,0.92,2.05,2.05,2.05s2.05-0.92,2.05-2.05c0-1.13-0.92-2.05-2.05-2.05
		S65.14,111.58,65.14,112.71z"/>
	<path class="st0" d="M84.85,136.09c0,1.13,0.92,2.05,2.05,2.05s2.05-0.92,2.05-2.05c0-1.13-0.92-2.05-2.05-2.05
		S84.85,134.96,84.85,136.09z"/>
	<path class="st0" d="M73.09,124.68c0,1.13,0.92,2.05,2.05,2.05s2.05-0.92,2.05-2.05c0-1.13-0.92-2.05-2.05-2.05
		S73.09,123.55,73.09,124.68z"/>
	<path class="st0" d="M86.9,62.88c-1.13,0-2.05,0.92-2.05,2.05s0.92,2.05,2.05,2.05s2.05-0.92,2.05-2.05S88.04,62.88,86.9,62.88z"/>
	<path class="st0" d="M69.08,88.31c0,1.13,0.92,2.05,2.05,2.05s2.05-0.92,2.05-2.05s-0.92-2.05-2.05-2.05S69.08,87.18,69.08,88.31z"
		/>
	<path class="st0" d="M77.04,76.34c0,1.13,0.92,2.05,2.05,2.05s2.05-0.92,2.05-2.05s-0.92-2.05-2.05-2.05S77.04,75.21,77.04,76.34z"
		/>
</g>
</svg>
