<svg xmlns="http://www.w3.org/2000/svg" xmlns:xlink="http://www.w3.org/1999/xlink" viewBox="0 0 1577.37 773.99"><defs><linearGradient id="Unbenannter_Verlauf_4" x1="5363.93" y1="1104.61" x2="5684.33" y2="437.66" gradientTransform="translate(9338.06 -3212.56) rotate(124.34)" gradientUnits="userSpaceOnUse"><stop offset="0.02" stop-color="#f3f8fe"/><stop offset="0.09" stop-color="#f7fafe" stop-opacity="0.68"/><stop offset="0.17" stop-color="#fafcff" stop-opacity="0.39"/><stop offset="0.24" stop-color="#fdfeff" stop-opacity="0.18"/><stop offset="0.28" stop-color="#feffff" stop-opacity="0.05"/><stop offset="0.31" stop-color="#fff" stop-opacity="0"/><stop offset="0.41" stop-color="#fdfeff" stop-opacity="0.16"/><stop offset="0.7" stop-color="#f8fbfe" stop-opacity="0.61"/><stop offset="0.91" stop-color="#f4f9fe" stop-opacity="0.89"/><stop offset="1" stop-color="#f3f8fe"/></linearGradient></defs><title>XAIN Website Main Assets</title><g style="isolation:isolate"><g id="Ebene_1" data-name="Ebene 1"><path d="M5682.33,1230.14c184.16-3.2,258.94-107.38,204.62-152.08C5749.54,965,5672.84,999.77,5763.71,894.89c39.19-45.23,342-227.77,67.48-399.45-199.25-124.6-658,204.69-699.23,464.94S5494.94,1233.4,5682.33,1230.14Z" transform="translate(-4781.84 -456.52)" style="fill:url(#Unbenannter_Verlauf_4)"/><line x1="63" y1="522.62" x2="192.49" y2="529.61" style="fill:#fff;stroke:#dadada;stroke-linecap:round;stroke-linejoin:round;stroke-width:2px"/><line x1="581.59" y1="616.99" x2="607.6" y2="606.55" style="fill:none;stroke:#c1d7f1;stroke-linecap:round;stroke-linejoin:round;stroke-width:2px"/><line x1="594.32" y1="633.01" x2="607.6" y2="606.55" style="fill:none;stroke:#c1d7f1;stroke-linecap:round;stroke-linejoin:round;stroke-width:2px"/><line x1="613.72" y1="633.01" x2="589.84" y2="595.04" style="fill:none;stroke:#c1d7f1;stroke-linecap:round;stroke-linejoin:round;stroke-width:2px"/><polyline points="555.5 410.88 576 421.13 639.74 415.24 713.89 376.09 745.76 369.85 781.1 376.09" style="fill:none;stroke:#dadada;stroke-linecap:round;stroke-linejoin:round;stroke-width:2px"/><polyline points="805.35 454.39 793.57 495.27 781.1 520.91 749.8 524.37 733.29 503.15 737.45 476.56 733.29 436.37 781.1 376.09 808.12 369.85 891.27 414.2 919.68 415.58" style="fill:none;stroke:#c1d7f1;stroke-linecap:round;stroke-linejoin:round;stroke-width:2px"/><polyline points="950.87 589.5 944.63 568.72 869.79 495.27 805.35 454.39" style="fill:none;stroke:#c1d7f1;stroke-linecap:round;stroke-linejoin:round;stroke-width:2px"/><line x1="984.12" y1="563.87" x2="950.86" y2="589.51" style="fill:none;stroke:#c1d7f1;stroke-linecap:round;stroke-linejoin:round;stroke-width:2px"/><polyline points="627.27 619.3 552.44 570.8 485.22 559.02" style="fill:none;stroke:#dadada;stroke-linecap:round;stroke-linejoin:round;stroke-width:2px"/><polyline points="578.31 589.16 581.38 617.3 594.32 633 613.72 633 623.58 622.84" style="fill:none;stroke:#c1d7f1;stroke-linecap:round;stroke-linejoin:round;stroke-width:2px"/><polyline points="627.27 624.07 623.58 643.78 639.9 669.65 663.92 674.27 689.48 646.56 696.26 633 691.33 612.68 658.07 608.98 630.66 619.3" style="fill:none;stroke:#c1d7f1;stroke-linecap:round;stroke-linejoin:round;stroke-width:2px"/><polyline points="696.26 633 715.04 620.69 737.83 635.47 733.29 663.19 714.12 686.28 700.88 694.29 675.01 687.82 663.92 674.27" style="fill:none;stroke:#c1d7f1;stroke-linecap:round;stroke-linejoin:round;stroke-width:2px"/><polyline points="758.77 702.3 745.22 716.77 727.05 716.77 711.65 706.92 714.12 686.28" style="fill:none;stroke:#c1d7f1;stroke-linecap:round;stroke-linejoin:round;stroke-width:2px"/><polyline points="950.87 589.5 950.87 589.5 929.69 622.84 903.51 619.3 905.36 646.25 884.42 666.57 864.4 665.03 858.71 687.21 836.69 701.07 822.21 689.98 820.37 708.15 801.27 716.77 776.33 711.54 758.77 702.3" style="fill:none;stroke:#dadada;stroke-linecap:round;stroke-linejoin:round;stroke-width:2px"/><polyline points="733.29 663.19 755.38 665.96 758.77 702.3" style="fill:none;stroke:#c1d7f1;stroke-linecap:round;stroke-linejoin:round;stroke-width:2px"/><path d="M5127.78,1023.16c1.39,0,62.83,12.47,62.83,12.47l60.51-4.16,59.59-71.8,10.63-32.6,22.17-82.69L5318.1,833.3,5205.39,795" transform="translate(-4781.84 -456.52)" style="fill:none;stroke:#dadada;stroke-linecap:round;stroke-linejoin:round;stroke-width:2px"/><polyline points="1049.03 355.53 923.84 411.43 971.42 488.11 998.68 646.09 1030.55 650.71 1158.05 600.36 1245.82 565.25" style="fill:none;stroke:#c1d7f1;stroke-linecap:round;stroke-linejoin:round;stroke-width:2px"/><circle cx="470.21" cy="574.16" r="4.96" style="fill:#fff;stroke:#dadada;stroke-linecap:round;stroke-linejoin:round;stroke-width:2px"/><circle cx="407.85" cy="579.11" r="4.96" style="fill:#fff;stroke:#dadada;stroke-linecap:round;stroke-linejoin:round;stroke-width:2px"/><circle cx="561.2" cy="386.91" r="4.96" style="fill:#fff;stroke:#dadada;stroke-linecap:round;stroke-linejoin:round;stroke-width:2px"/><circle cx="998.68" cy="646.09" r="4.96" style="fill:#fff;stroke:#c1d7f1;stroke-linecap:round;stroke-linejoin:round;stroke-width:2px"/><circle cx="1031.47" cy="650.71" r="4.96" style="fill:#fff;stroke:#c1d7f1;stroke-linecap:round;stroke-linejoin:round;stroke-width:2px"/><circle cx="581.59" cy="616.99" r="4.96" style="fill:#fff;stroke:#c1d7f1;stroke-linecap:round;stroke-linejoin:round;stroke-width:2px"/><circle cx="594.01" cy="633.01" r="4.96" style="fill:#fff;stroke:#c1d7f1;stroke-linecap:round;stroke-linejoin:round;stroke-width:2px"/><circle cx="613.53" cy="633.01" r="4.96" style="fill:#fff;stroke:#c1d7f1;stroke-linecap:round;stroke-linejoin:round;stroke-width:2px"/><line x1="528.88" y1="503.58" x2="600.94" y2="529.13" style="fill:none;stroke:#dadada;stroke-linecap:round;stroke-linejoin:round;stroke-width:2px"/><line x1="552.44" y1="570.8" x2="600.94" y2="529.13" style="fill:none;stroke:#dadada;stroke-linecap:round;stroke-linejoin:round;stroke-width:2px"/><line x1="485.22" y1="559.02" x2="600.94" y2="529.13" style="fill:none;stroke:#dadada;stroke-linecap:round;stroke-linejoin:round;stroke-width:2px"/><line x1="555.5" y1="410.88" x2="600.94" y2="529.13" style="fill:none;stroke:#dadada;stroke-linecap:round;stroke-linejoin:round;stroke-width:2px"/><line x1="575.35" y1="421.13" x2="528.88" y2="503.58" style="fill:none;stroke:#dadada;stroke-linecap:round;stroke-linejoin:round;stroke-width:2px"/><line x1="639.3" y1="416.15" x2="600.94" y2="529.13" style="fill:none;stroke:#dadada;stroke-linecap:round;stroke-linejoin:round;stroke-width:2px"/><line x1="625.23" y1="621.95" x2="600.94" y2="529.13" style="fill:none;stroke:#dadada;stroke-linecap:round;stroke-linejoin:round;stroke-width:2px"/><circle cx="556.25" cy="411.2" r="4.96" style="fill:#fff;stroke:#dadada;stroke-linecap:round;stroke-linejoin:round;stroke-width:2px"/><circle cx="575.35" cy="421.13" r="4.96" style="fill:#fff;stroke:#dadada;stroke-linecap:round;stroke-linejoin:round;stroke-width:2px"/><circle cx="639.3" cy="416.15" r="4.96" style="fill:#fff;stroke:#dadada;stroke-linecap:round;stroke-linejoin:round;stroke-width:2px"/><circle cx="552.44" cy="570.8" r="4.96" style="fill:#fff;stroke:#dadada;stroke-linecap:round;stroke-linejoin:round;stroke-width:2px"/><circle cx="485.22" cy="559.02" r="4.96" style="fill:#fff;stroke:#dadada;stroke-linecap:round;stroke-linejoin:round;stroke-width:2px"/><circle cx="528.88" cy="503.58" r="4.96" style="fill:#fff;stroke:#dadada;stroke-linecap:round;stroke-linejoin:round;stroke-width:2px"/><line x1="625.23" y1="621.95" x2="691.33" y2="612.68" style="fill:none;stroke:#c1d7f1;stroke-linecap:round;stroke-linejoin:round;stroke-width:2px"/><line x1="658.96" y1="608.98" x2="663.92" y2="674.27" style="fill:none;stroke:#c1d7f1;stroke-linecap:round;stroke-linejoin:round;stroke-width:2px"/><line x1="688.53" y1="646.58" x2="639.9" y2="669.65" style="fill:none;stroke:#c1d7f1;stroke-linecap:round;stroke-linejoin:round;stroke-width:2px"/><line x1="691.33" y1="612.68" x2="639.9" y2="669.65" style="fill:none;stroke:#c1d7f1;stroke-linecap:round;stroke-linejoin:round;stroke-width:2px"/><line x1="623.58" y1="643.78" x2="688.53" y2="646.58" style="fill:none;stroke:#c1d7f1;stroke-linecap:round;stroke-linejoin:round;stroke-width:2px"/><line x1="658.07" y1="608.98" x2="623.58" y2="643.78" style="fill:none;stroke:#c1d7f1;stroke-linecap:round;stroke-linejoin:round;stroke-width:2px"/><circle cx="623.58" cy="643.78" r="4.96" style="fill:#fff;stroke:#c1d7f1;stroke-linecap:round;stroke-linejoin:round;stroke-width:2px"/><circle cx="639.9" cy="669.65" r="4.96" style="fill:#fff;stroke:#c1d7f1;stroke-linecap:round;stroke-linejoin:round;stroke-width:2px"/><circle cx="691.17" cy="612.99" r="4.96" style="fill:#fff;stroke:#c1d7f1;stroke-linecap:round;stroke-linejoin:round;stroke-width:2px"/><circle cx="658.96" cy="608.98" r="4.96" style="fill:#fff;stroke:#c1d7f1;stroke-linecap:round;stroke-linejoin:round;stroke-width:2px"/><circle cx="625.23" cy="621.95" r="4.96" style="fill:#fff;stroke:#c1d7f1;stroke-linecap:round;stroke-linejoin:round;stroke-width:2px"/><line x1="688.53" y1="646.58" x2="737.83" y2="635.13" style="fill:#fff;stroke:#c1d7f1;stroke-linecap:round;stroke-linejoin:round;stroke-width:2px"/><line x1="715.35" y1="620.69" x2="734.09" y2="663.19" style="fill:none;stroke:#c1d7f1;stroke-linecap:round;stroke-linejoin:round;stroke-width:2px"/><line x1="700.88" y1="694.29" x2="715.35" y2="620.69" style="fill:none;stroke:#c1d7f1;stroke-linecap:round;stroke-linejoin:round;stroke-width:2px"/><line x1="734.09" y1="663.19" x2="664.87" y2="674.27" style="fill:none;stroke:#c1d7f1;stroke-linecap:round;stroke-linejoin:round;stroke-width:2px"/><line x1="688.53" y1="646.58" x2="700.88" y2="694.29" style="fill:none;stroke:#c1d7f1;stroke-linecap:round;stroke-linejoin:round;stroke-width:2px"/><line x1="711.65" y1="706.92" x2="755.38" y2="665.57" style="fill:none;stroke:#c1d7f1;stroke-linecap:round;stroke-linejoin:round;stroke-width:2px"/><line x1="742.79" y1="716.77" x2="755.38" y2="665.57" style="fill:none;stroke:#c1d7f1;stroke-linecap:round;stroke-linejoin:round;stroke-width:2px"/><line x1="734.09" y1="663.19" x2="758.77" y2="701.91" style="fill:none;stroke:#c1d7f1;stroke-linecap:round;stroke-linejoin:round;stroke-width:2px"/><line x1="742.79" y1="716.77" x2="734.09" y2="663.19" style="fill:none;stroke:#c1d7f1;stroke-linecap:round;stroke-linejoin:round;stroke-width:2px"/><line x1="711.65" y1="706.92" x2="758.77" y2="701.91" style="fill:none;stroke:#c1d7f1;stroke-linecap:round;stroke-linejoin:round;stroke-width:2px"/><circle cx="700.88" cy="692.65" r="4.96" style="fill:#fff;stroke:#c1d7f1;stroke-linecap:round;stroke-linejoin:round;stroke-width:2px"/><circle cx="715.35" cy="620.69" r="4.96" style="fill:#fff;stroke:#c1d7f1;stroke-linecap:round;stroke-linejoin:round;stroke-width:2px"/><circle cx="737.83" cy="635.13" r="4.96" style="fill:#fff;stroke:#c1d7f1;stroke-linecap:round;stroke-linejoin:round;stroke-width:2px"/><circle cx="734.09" cy="663.19" r="4.96" style="fill:#fff;stroke:#c1d7f1;stroke-linecap:round;stroke-linejoin:round;stroke-width:2px"/><circle cx="711.65" cy="706.86" r="4.96" style="fill:#fff;stroke:#c1d7f1;stroke-linecap:round;stroke-linejoin:round;stroke-width:2px"/><circle cx="743.95" cy="716.77" r="4.96" style="fill:#fff;stroke:#c1d7f1;stroke-linecap:round;stroke-linejoin:round;stroke-width:2px"/><circle cx="758.77" cy="701.91" r="4.96" style="fill:#fff;stroke:#c1d7f1;stroke-linecap:round;stroke-linejoin:round;stroke-width:2px"/><circle cx="755.38" cy="665.57" r="4.96" style="fill:#fff;stroke:#c1d7f1;stroke-linecap:round;stroke-linejoin:round;stroke-width:2px"/><circle cx="664.87" cy="674.27" r="4.96" style="fill:#fff;stroke:#c1d7f1;stroke-linecap:round;stroke-linejoin:round;stroke-width:2px"/><circle cx="688.53" cy="646.58" r="4.96" style="fill:#fff;stroke:#c1d7f1;stroke-linecap:round;stroke-linejoin:round;stroke-width:2px"/><line x1="600.94" y1="529.13" x2="696.26" y2="489.49" style="fill:none;stroke:#dadada;stroke-linecap:round;stroke-linejoin:round;stroke-width:2px"/><line x1="713.44" y1="377" x2="696.26" y2="489.49" style="fill:none;stroke:#dadada;stroke-linecap:round;stroke-linejoin:round;stroke-width:2px"/><line x1="745.76" y1="369.85" x2="600.94" y2="529.13" style="fill:none;stroke:#dadada;stroke-linecap:round;stroke-linejoin:round;stroke-width:2px"/><line x1="696.26" y1="489.49" x2="791.01" y2="604.03" style="fill:none;stroke:#dadada;stroke-linecap:round;stroke-linejoin:round;stroke-width:2px"/><line x1="600.94" y1="529.13" x2="791.01" y2="604.03" style="fill:none;stroke:#dadada;stroke-linecap:round;stroke-linejoin:round;stroke-width:2px"/><line x1="742.79" y1="516.36" x2="627.27" y2="619.3" style="fill:none;stroke:#dadada;stroke-linecap:round;stroke-linejoin:round;stroke-width:2px"/><line x1="694.7" y1="489.49" x2="729.13" y2="629.83" style="fill:none;stroke:#dadada;stroke-linecap:round;stroke-linejoin:round;stroke-width:2px"/><line x1="791.01" y1="606.14" x2="776.25" y2="711.82" style="fill:none;stroke:#dadada;stroke-linecap:round;stroke-linejoin:round;stroke-width:2px"/><line x1="903.52" y1="619.3" x2="786.06" y2="510.72" style="fill:none;stroke:#dadada;stroke-linecap:round;stroke-linejoin:round;stroke-width:2px"/><line x1="864.79" y1="666.42" x2="791.01" y2="604.03" style="fill:none;stroke:#dadada;stroke-linecap:round;stroke-linejoin:round;stroke-width:2px"/><line x1="822.21" y1="689.98" x2="791.01" y2="604.03" style="fill:none;stroke:#dadada;stroke-linecap:round;stroke-linejoin:round;stroke-width:2px"/><line x1="950.86" y1="589.51" x2="821.91" y2="543.86" style="fill:none;stroke:#dadada;stroke-linecap:round;stroke-linejoin:round;stroke-width:2px"/><line x1="930.31" y1="620.69" x2="821.91" y2="543.86" style="fill:none;stroke:#dadada;stroke-linecap:round;stroke-linejoin:round;stroke-width:2px"/><line x1="906.58" y1="648.56" x2="790.49" y2="602.42" style="fill:none;stroke:#dadada;stroke-linecap:round;stroke-linejoin:round;stroke-width:2px"/><line x1="884.42" y1="666.57" x2="869.37" y2="634.79" style="fill:none;stroke:#dadada;stroke-linecap:round;stroke-linejoin:round;stroke-width:2px"/><line x1="858.71" y1="687.21" x2="844.07" y2="648.56" style="fill:none;stroke:#dadada;stroke-linecap:round;stroke-linejoin:round;stroke-width:2px"/><line x1="836.69" y1="701.07" x2="844.07" y2="648.56" style="fill:none;stroke:#dadada;stroke-linecap:round;stroke-linejoin:round;stroke-width:2px"/><line x1="819.75" y1="709.16" x2="780.81" y2="681.67" style="fill:none;stroke:#dadada;stroke-linecap:round;stroke-linejoin:round;stroke-width:2px"/><line x1="791.01" y1="604.03" x2="826.21" y2="468.46" style="fill:none;stroke:#dadada;stroke-linecap:round;stroke-linejoin:round;stroke-width:2px"/><line x1="821.91" y1="543.86" x2="869.79" y2="495.27" style="fill:none;stroke:#dadada;stroke-linecap:round;stroke-linejoin:round;stroke-width:2px"/><circle cx="600.94" cy="529.13" r="4.96" style="fill:#fff;stroke:#dadada;stroke-linecap:round;stroke-linejoin:round;stroke-width:2px"/><circle cx="696.26" cy="489.49" r="4.96" style="fill:#fff;stroke:#dadada;stroke-linecap:round;stroke-linejoin:round;stroke-width:2px"/><circle cx="791.01" cy="604.03" r="4.96" style="fill:#fff;stroke:#dadada;stroke-linecap:round;stroke-linejoin:round;stroke-width:2px"/><polygon points="401.28 338.23 266.49 327.35 329.28 358.32 401.28 338.23" style="fill:#fff;stroke:#dadada;stroke-linecap:round;stroke-linejoin:round;stroke-width:2px"/><polygon points="326.77 447.07 226.3 375.07 224.63 453.77 326.77 447.07" style="fill:#fff;stroke:#dadada;stroke-linecap:round;stroke-linejoin:round;stroke-width:2px"/><polygon points="320.91 505.67 299.14 526.6 325.93 534.98 320.91 505.67" style="fill:#fff;stroke:#dadada;stroke-linecap:round;stroke-linejoin:round;stroke-width:2px"/><polygon points="204.44 275.07 116.53 205.58 182.67 224.84 204.44 275.07" style="fill:#fff;stroke:#dadada;stroke-linecap:round;stroke-linejoin:round;stroke-width:2px"/><polygon points="201.93 327.81 116.53 327.81 142.49 363.81 187.7 352.93 201.93 327.81" style="fill:#fff;stroke:#dadada;stroke-linecap:round;stroke-linejoin:round;stroke-width:2px"/><polygon points="129.09 453.39 98.12 468.46 121.56 482.7 154.21 480.19 129.09 453.39" style="fill:#fff;stroke:#dadada;stroke-linecap:round;stroke-linejoin:round;stroke-width:2px"/><polygon points="17.51 266.35 16.93 268.12 8.3 310.72 57.7 299 17.51 266.35" style="fill:#fff;stroke:#dadada;stroke-linecap:round;stroke-linejoin:round;stroke-width:2px"/><circle cx="265.53" cy="327.26" r="4.96" style="fill:#fff;stroke:#dadada;stroke-linecap:round;stroke-linejoin:round;stroke-width:2px"/><circle cx="182.77" cy="224.07" r="4.96" style="fill:#fff;stroke:#dadada;stroke-linecap:round;stroke-linejoin:round;stroke-width:2px"/><circle cx="16.93" cy="268.12" r="4.96" style="fill:#fff;stroke:#dadada;stroke-linecap:round;stroke-linejoin:round;stroke-width:2px"/><circle cx="224.63" cy="453.77" r="4.96" style="fill:#fff;stroke:#dadada;stroke-linecap:round;stroke-linejoin:round;stroke-width:2px"/><circle cx="320.91" cy="505.67" r="4.96" style="fill:#fff;stroke:#dadada;stroke-linecap:round;stroke-linejoin:round;stroke-width:2px"/><circle cx="128.44" cy="454.14" r="4.96" style="fill:#fff;stroke:#dadada;stroke-linecap:round;stroke-linejoin:round;stroke-width:2px"/><circle cx="116.53" cy="327.81" r="4.96" style="fill:#fff;stroke:#dadada;stroke-linecap:round;stroke-linejoin:round;stroke-width:2px"/><line x1="561.2" y1="386.91" x2="409.09" y2="479.25" style="fill:none;stroke:#dadada;stroke-linecap:round;stroke-linejoin:round;stroke-width:2px"/><line x1="556.25" y1="411.2" x2="409.09" y2="479.25" style="fill:none;stroke:#dadada;stroke-linecap:round;stroke-linejoin:round;stroke-width:2px"/><line x1="528.88" y1="503.15" x2="409.09" y2="479.25" style="fill:none;stroke:#dadada;stroke-linecap:round;stroke-linejoin:round;stroke-width:2px"/><line x1="471.6" y1="576.37" x2="409.09" y2="479.25" style="fill:none;stroke:#dadada;stroke-linecap:round;stroke-linejoin:round;stroke-width:2px"/><line x1="407.85" y1="579.11" x2="409.09" y2="479.25" style="fill:none;stroke:#dadada;stroke-linecap:round;stroke-linejoin:round;stroke-width:2px"/><circle cx="409.09" cy="479.25" r="4.96" style="fill:#fff;stroke:#dadada;stroke-linecap:round;stroke-linejoin:round;stroke-width:2px"/><polyline points="407.09 474.3 392.21 425.3 327.09 401.49" style="fill:none;stroke:#dadada;stroke-linecap:round;stroke-linejoin:round;stroke-width:2px"/><line x1="404.14" y1="479.25" x2="351.05" y2="483.72" style="fill:none;stroke:#dadada;stroke-linecap:round;stroke-linejoin:round;stroke-width:2px"/><line x1="1" y1="379.72" x2="86.4" y2="389.77" style="fill:#fff;stroke:#dadada;stroke-linecap:round;stroke-linejoin:round;stroke-width:2px"/><polyline points="53.51 220.3 68.58 247.09 112.12 250.44" style="fill:#fff;stroke:#dadada;stroke-linecap:round;stroke-linejoin:round;stroke-width:2px"/><line x1="219.95" y1="267.05" x2="258.28" y2="311.56" style="fill:#fff;stroke:#dadada;stroke-linecap:round;stroke-linejoin:round;stroke-width:2px"/><circle cx="193.49" cy="530.61" r="4.96" style="fill:#fff;stroke:#dadada;stroke-linecap:round;stroke-linejoin:round;stroke-width:2px"/><circle cx="68.78" cy="247.14" r="4.96" style="fill:#fff;stroke:#dadada;stroke-linecap:round;stroke-linejoin:round;stroke-width:2px"/><line x1="1440.74" y1="562.6" x2="1316.84" y2="517.39" style="fill:#fff;stroke:#c1d7f1;stroke-linecap:round;stroke-linejoin:round;stroke-width:2px"/><polygon points="1101 357.02 1235.79 346.14 1173 377.12 1101 357.02" style="fill:#fff;stroke:#c1d7f1;stroke-linecap:round;stroke-linejoin:round;stroke-width:2px"/><polygon points="1178.7 447.07 1279.16 375.07 1280.84 453.77 1178.7 447.07" style="fill:#fff;stroke:#c1d7f1;stroke-linecap:round;stroke-linejoin:round;stroke-width:2px"/><polygon points="1184.56 505.67 1206.33 526.6 1179.54 534.98 1184.56 505.67" style="fill:#fff;stroke:#c1d7f1;stroke-linecap:round;stroke-linejoin:round;stroke-width:2px"/><polygon points="1321.02 267.07 1408.93 197.58 1342.79 216.84 1321.02 267.07" style="fill:#fff;stroke:#c1d7f1;stroke-linecap:round;stroke-linejoin:round;stroke-width:2px"/><polygon points="1323.54 319.81 1408.93 319.81 1382.98 355.81 1337.77 344.93 1323.54 319.81" style="fill:#fff;stroke:#c1d7f1;stroke-linecap:round;stroke-linejoin:round;stroke-width:2px"/><polygon points="1396.37 445.39 1427.35 460.46 1403.91 474.7 1371.26 472.19 1396.37 445.39" style="fill:#fff;stroke:#c1d7f1;stroke-linecap:round;stroke-linejoin:round;stroke-width:2px"/><polygon points="1521.95 255.35 1576.37 263.72 1531.16 299.72 1481.77 288 1521.95 255.35" style="fill:#fff;stroke:#c1d7f1;stroke-linecap:round;stroke-linejoin:round;stroke-width:2px"/><circle cx="1236.74" cy="346.05" r="4.96" style="fill:#fff;stroke:#c1d7f1;stroke-linecap:round;stroke-linejoin:round;stroke-width:2px"/><circle cx="1342.7" cy="216.07" r="4.96" style="fill:#fff;stroke:#c1d7f1;stroke-linecap:round;stroke-linejoin:round;stroke-width:2px"/><circle cx="1522.54" cy="257.12" r="4.96" style="fill:#fff;stroke:#c1d7f1;stroke-linecap:round;stroke-linejoin:round;stroke-width:2px"/><circle cx="1280.84" cy="453.77" r="4.96" style="fill:#fff;stroke:#c1d7f1;stroke-linecap:round;stroke-linejoin:round;stroke-width:2px"/><circle cx="1184.56" cy="505.67" r="4.96" style="fill:#fff;stroke:#c1d7f1;stroke-linecap:round;stroke-linejoin:round;stroke-width:2px"/><circle cx="1397.02" cy="446.14" r="4.96" style="fill:#fff;stroke:#c1d7f1;stroke-linecap:round;stroke-linejoin:round;stroke-width:2px"/><circle cx="1408.93" cy="319.81" r="4.96" style="fill:#fff;stroke:#c1d7f1;stroke-linecap:round;stroke-linejoin:round;stroke-width:2px"/><line x1="928.3" y1="416.51" x2="1096.37" y2="479.25" style="fill:#fff;stroke:#c1d7f1;stroke-linecap:round;stroke-linejoin:round;stroke-width:2px"/><line x1="977.41" y1="489.49" x2="1098.73" y2="479.45" style="fill:#fff;stroke:#c1d7f1;stroke-linecap:round;stroke-linejoin:round;stroke-width:2px"/><line x1="1001.84" y1="641.49" x2="1096.37" y2="479.25" style="fill:#fff;stroke:#c1d7f1;stroke-linecap:round;stroke-linejoin:round;stroke-width:2px"/><line x1="1031.47" y1="645.76" x2="1096.37" y2="479.25" style="fill:#fff;stroke:#c1d7f1;stroke-linecap:round;stroke-linejoin:round;stroke-width:2px"/><circle cx="1096.37" cy="479.25" r="4.96" style="fill:#fff;stroke:#c1d7f1;stroke-linecap:round;stroke-linejoin:round;stroke-width:2px"/><polyline points="1098.37 474.3 1113.26 425.3 1178.37 401.49" style="fill:#fff;stroke:#c1d7f1;stroke-linecap:round;stroke-linejoin:round;stroke-width:2px"/><line x1="1101.33" y1="479.25" x2="1154.42" y2="483.72" style="fill:#fff;stroke:#c1d7f1;stroke-linecap:round;stroke-linejoin:round;stroke-width:2px"/><line x1="1524.46" y1="371.72" x2="1439.07" y2="381.77" style="fill:#fff;stroke:#c1d7f1;stroke-linecap:round;stroke-linejoin:round;stroke-width:2px"/><polyline points="1485.95 209.3 1470.88 236.09 1427.35 239.44" style="fill:#fff;stroke:#c1d7f1;stroke-linecap:round;stroke-linejoin:round;stroke-width:2px"/><line x1="1264.93" y1="210.98" x2="1219.72" y2="289.67" style="fill:#fff;stroke:#c1d7f1;stroke-linecap:round;stroke-linejoin:round;stroke-width:2px"/><circle cx="1331.98" cy="522.61" r="4.96" style="fill:#fff;stroke:#c1d7f1;stroke-linecap:round;stroke-linejoin:round;stroke-width:2px"/><circle cx="1470.69" cy="236.14" r="4.96" style="fill:#fff;stroke:#c1d7f1;stroke-linecap:round;stroke-linejoin:round;stroke-width:2px"/><line x1="733.29" y1="436.37" x2="805.35" y2="454.39" style="fill:none;stroke:#c1d7f1;stroke-linecap:round;stroke-linejoin:round;stroke-width:2px"/><circle cx="713.44" cy="377" r="4.96" style="fill:#fff;stroke:#dadada;stroke-linecap:round;stroke-linejoin:round;stroke-width:2px"/><circle cx="746.45" cy="369.85" r="4.96" style="fill:#fff;stroke:#dadada;stroke-linecap:round;stroke-linejoin:round;stroke-width:2px"/><line x1="738.24" y1="476.99" x2="805.89" y2="456.21" style="fill:none;stroke:#c1d7f1;stroke-linecap:round;stroke-linejoin:round;stroke-width:2px"/><line x1="781.1" y1="520.91" x2="782.79" y2="377" style="fill:none;stroke:#c1d7f1;stroke-linecap:round;stroke-linejoin:round;stroke-width:2px"/><line x1="749.8" y1="524.37" x2="805.89" y2="456.21" style="fill:none;stroke:#c1d7f1;stroke-linecap:round;stroke-linejoin:round;stroke-width:2px"/><line x1="733.29" y1="503.15" x2="781.1" y2="520.91" style="fill:none;stroke:#c1d7f1;stroke-linecap:round;stroke-linejoin:round;stroke-width:2px"/><line x1="733.29" y1="436.37" x2="892.12" y2="413.09" style="fill:none;stroke:#c1d7f1;stroke-linecap:round;stroke-linejoin:round;stroke-width:2px"/><line x1="808.12" y1="369.85" x2="811.32" y2="423.81" style="fill:none;stroke:#c1d7f1;stroke-linecap:round;stroke-linejoin:round;stroke-width:2px"/><line x1="805.89" y1="456.21" x2="923.84" y2="415.09" style="fill:none;stroke:#c1d7f1;stroke-linecap:round;stroke-linejoin:round;stroke-width:2px"/><line x1="892.12" y1="413.09" x2="972.45" y2="489.49" style="fill:none;stroke:#c1d7f1;stroke-linecap:round;stroke-linejoin:round;stroke-width:2px"/><line x1="869.79" y1="495.27" x2="972.45" y2="489.49" style="fill:none;stroke:#c1d7f1;stroke-linecap:round;stroke-linejoin:round;stroke-width:2px"/><line x1="944.63" y1="568.72" x2="972.45" y2="489.49" style="fill:none;stroke:#c1d7f1;stroke-linecap:round;stroke-linejoin:round;stroke-width:2px"/><circle cx="782.79" cy="377" r="4.96" style="fill:#fff;stroke:#264c7e;stroke-linecap:round;stroke-linejoin:round;stroke-width:2px"/><circle cx="782.79" cy="317.1" r="4.96" style="fill:#fff;stroke:#264c7e;stroke-linecap:round;stroke-linejoin:round;stroke-width:2px"/><circle cx="808.05" cy="369.85" r="4.96" style="fill:#fff;stroke:#c1d7f1;stroke-linecap:round;stroke-linejoin:round;stroke-width:2px"/><circle cx="892.12" cy="413.09" r="4.96" style="fill:#fff;stroke:#c1d7f1;stroke-linecap:round;stroke-linejoin:round;stroke-width:2px"/><circle cx="972.45" cy="489.49" r="4.96" style="fill:#fff;stroke:#c1d7f1;stroke-linecap:round;stroke-linejoin:round;stroke-width:2px"/><circle cx="923.84" cy="415.09" r="4.96" style="fill:#fff;stroke:#c1d7f1;stroke-linecap:round;stroke-linejoin:round;stroke-width:2px"/><circle cx="733.29" cy="435.26" r="4.96" style="fill:#fff;stroke:#c1d7f1;stroke-linecap:round;stroke-linejoin:round;stroke-width:2px"/><circle cx="738.24" cy="476.99" r="4.96" style="fill:#fff;stroke:#c1d7f1;stroke-linecap:round;stroke-linejoin:round;stroke-width:2px"/><circle cx="734.09" cy="503.58" r="4.96" style="fill:#fff;stroke:#c1d7f1;stroke-linecap:round;stroke-linejoin:round;stroke-width:2px"/><circle cx="749.8" cy="524.17" r="4.96" style="fill:#fff;stroke:#c1d7f1;stroke-linecap:round;stroke-linejoin:round;stroke-width:2px"/><circle cx="781.1" cy="520.57" r="4.96" style="fill:#fff;stroke:#c1d7f1;stroke-linecap:round;stroke-linejoin:round;stroke-width:2px"/><circle cx="805.89" cy="456.21" r="4.96" style="fill:#fff;stroke:#c1d7f1;stroke-linecap:round;stroke-linejoin:round;stroke-width:2px"/><circle cx="904.13" cy="619.3" r="4.96" style="fill:#fff;stroke:#dadada;stroke-linecap:round;stroke-linejoin:round;stroke-width:2px"/><circle cx="930.31" cy="620.69" r="4.96" style="fill:#fff;stroke:#dadada;stroke-linecap:round;stroke-linejoin:round;stroke-width:2px"/><circle cx="950.86" cy="589.16" r="4.96" style="fill:#fff;stroke:#dadada;stroke-linecap:round;stroke-linejoin:round;stroke-width:2px"/><circle cx="905.43" cy="646.58" r="4.96" style="fill:#fff;stroke:#dadada;stroke-linecap:round;stroke-linejoin:round;stroke-width:2px"/><circle cx="885.12" cy="666.42" r="4.96" style="fill:#fff;stroke:#dadada;stroke-linecap:round;stroke-linejoin:round;stroke-width:2px"/><circle cx="864.79" cy="666.42" r="4.96" style="fill:#fff;stroke:#dadada;stroke-linecap:round;stroke-linejoin:round;stroke-width:2px"/><circle cx="859.84" cy="687.7" r="4.96" style="fill:#fff;stroke:#dadada;stroke-linecap:round;stroke-linejoin:round;stroke-width:2px"/><circle cx="838.84" cy="699.25" r="4.96" style="fill:#fff;stroke:#dadada;stroke-linecap:round;stroke-linejoin:round;stroke-width:2px"/><circle cx="821.91" cy="690.57" r="4.96" style="fill:#fff;stroke:#dadada;stroke-linecap:round;stroke-linejoin:round;stroke-width:2px"/><circle cx="819.75" cy="709.16" r="4.96" style="fill:#fff;stroke:#dadada;stroke-linecap:round;stroke-linejoin:round;stroke-width:2px"/><circle cx="776.25" cy="711.82" r="4.96" style="fill:#fff;stroke:#dadada;stroke-linecap:round;stroke-linejoin:round;stroke-width:2px"/><line x1="782.79" y1="371.05" x2="782.79" y2="322.86" style="fill:none;stroke:#264c7e;stroke-linecap:round;stroke-linejoin:round;stroke-width:2px"/><path d="M5566.14,751.32a12.65,12.65,0,1,0,25.29,0,12.49,12.49,0,0,0-.33-2.81,11.84,11.84,0,0,0,3.17.45,11.64,11.64,0,0,0,11.64-11.64,11.78,11.78,0,0,0-.53-3.48,16.06,16.06,0,0,0-1.67-30.58A11.63,11.63,0,0,0,5600.6,681a11.63,11.63,0,0,0-11.19-14.83l-.64,0a11.63,11.63,0,1,0-22.63-3.79Z" transform="translate(-4781.84 -456.52)" style="fill:#264c7e"/><path d="M5561.5,751.32a12.65,12.65,0,1,1-25.29,0,13.08,13.08,0,0,1,.32-2.81,11.64,11.64,0,0,1-14.27-14.67,16.06,16.06,0,0,1,1.67-30.58A11.63,11.63,0,0,1,5527,681a11.63,11.63,0,0,1,11.18-14.83c.22,0,.43,0,.65,0a11.63,11.63,0,1,1,22.63-3.79Z" transform="translate(-4781.84 -456.52)" style="fill:#264c7e"/><polyline points="792.28 215.95 788.79 215.95 784.24 220.5 784.24 251.38" style="fill:none;stroke:#fff;stroke-linecap:round;stroke-linejoin:round;stroke-width:2px"/><circle cx="795.33" cy="215.92" r="3.05" style="fill:none;stroke:#fff;stroke-linecap:round;stroke-linejoin:round;stroke-width:2px"/><circle cx="803.14" cy="227.33" r="3.05" style="fill:none;stroke:#fff;stroke-linecap:round;stroke-linejoin:round;stroke-width:2px"/><circle cx="811.1" cy="239.3" r="3.05" style="fill:none;stroke:#fff;stroke-linecap:round;stroke-linejoin:round;stroke-width:2px"/><polyline points="784.24 231.5 792.28 231.5 796.46 227.33 800.09 227.33" style="fill:none;stroke:#fff;stroke-linecap:round;stroke-linejoin:round;stroke-width:2px"/><polyline points="784.24 249.28 790.39 249.28 800.36 239.3 808.05 239.3" style="fill:none;stroke:#fff;stroke-linecap:round;stroke-linejoin:round;stroke-width:2px"/><polyline points="792.28 287.04 788.79 287.04 784.24 282.49 784.24 251.61" style="fill:none;stroke:#fff;stroke-linecap:round;stroke-linejoin:round;stroke-width:2px"/><circle cx="795.33" cy="287.08" r="3.05" style="fill:none;stroke:#fff;stroke-linecap:round;stroke-linejoin:round;stroke-width:2px"/><circle cx="807.09" cy="275.67" r="3.05" style="fill:none;stroke:#fff;stroke-linecap:round;stroke-linejoin:round;stroke-width:2px"/><circle cx="815.05" cy="263.7" r="3.05" style="fill:none;stroke:#fff;stroke-linecap:round;stroke-linejoin:round;stroke-width:2px"/><polyline points="784.24 271.49 796.22 271.49 800.4 275.67 804.04 275.67" style="fill:none;stroke:#fff;stroke-linecap:round;stroke-linejoin:round;stroke-width:2px"/><polyline points="784.24 253.72 794.33 253.72 804.31 263.7 811.99 263.7" style="fill:none;stroke:#fff;stroke-linecap:round;stroke-linejoin:round;stroke-width:2px"/><polyline points="771.69 215.95 775.17 215.95 779.72 220.5 779.72 251.38" style="fill:none;stroke:#fff;stroke-linecap:round;stroke-linejoin:round;stroke-width:2px"/><circle cx="768.63" cy="215.92" r="3.05" style="fill:none;stroke:#fff;stroke-linecap:round;stroke-linejoin:round;stroke-width:2px"/><circle cx="760.82" cy="227.33" r="3.05" style="fill:none;stroke:#fff;stroke-linecap:round;stroke-linejoin:round;stroke-width:2px"/><circle cx="752.86" cy="239.3" r="3.05" style="fill:none;stroke:#fff;stroke-linecap:round;stroke-linejoin:round;stroke-width:2px"/><polyline points="779.72 231.5 771.69 231.5 767.51 227.33 763.87 227.33" style="fill:none;stroke:#fff;stroke-linecap:round;stroke-linejoin:round;stroke-width:2px"/><polyline points="779.72 249.28 773.58 249.28 763.6 239.3 755.91 239.3" style="fill:none;stroke:#fff;stroke-linecap:round;stroke-linejoin:round;stroke-width:2px"/><polyline points="771.69 287.04 775.17 287.04 779.72 282.49 779.72 251.61" style="fill:none;stroke:#fff;stroke-linecap:round;stroke-linejoin:round;stroke-width:2px"/><circle cx="768.63" cy="287.08" r="3.05" style="fill:none;stroke:#fff;stroke-linecap:round;stroke-linejoin:round;stroke-width:2px"/><circle cx="756.88" cy="275.67" r="3.05" style="fill:none;stroke:#fff;stroke-linecap:round;stroke-linejoin:round;stroke-width:2px"/><circle cx="748.92" cy="263.7" r="3.05" style="fill:none;stroke:#fff;stroke-linecap:round;stroke-linejoin:round;stroke-width:2px"/><polyline points="779.72 271.49 767.74 271.49 763.56 275.67 759.93 275.67" style="fill:none;stroke:#fff;stroke-linecap:round;stroke-linejoin:round;stroke-width:2px"/><polyline points="779.72 253.72 769.63 253.72 759.66 263.7 751.97 263.7" style="fill:none;stroke:#fff;stroke-linecap:round;stroke-linejoin:round;stroke-width:2px"/><path d="M5117.51,517.37s6.9,6.82,8.07,16.41,1.62,16.85,1.62,16.85l-14-2Z" transform="translate(-4781.84 -456.52)" style="fill:#fff;stroke:#c1d7f1;stroke-linecap:round;stroke-linejoin:round;stroke-width:2px"/><polygon points="328.34 321.18 332.57 324.44 346.91 329.65 346.91 332.58 326.55 332.58 324.27 330.95 324.27 332.58 315.15 332.58 315.15 325.29 328.34 321.18" style="fill:#87a4d6"/><polygon points="250.99 284.54 252.1 288.58 254.84 295.45 258.17 302.25 255.98 304.19 249.86 298.31 242.01 289.49 241.72 286.7 240.5 287.79 234.44 280.97 240.9 275.84 250.99 284.54" style="fill:#87a4d6"/><path d="M5118,607v82.73l-7.81,88-14.66,4.56s-2.18-67.89.88-88.14l-4.35-45-6.1,47.38-51.32,47.71s-11.33-4.06-14.24-11.91L5064,690.28l-.35-84.43Z" transform="translate(-4781.84 -456.52)" style="fill:#264c7e"/><path d="M5101.82,506v-5.32s7.16.65,9.77-2.39,3.42-25.48-4.89-30.19c-3.69-2.09-15.17-3.47-19.41,2.07s0,16.61,0,16.61,1.55,10.75-.24,19.22l-1.68,2.9s9.29,9.49,16.46,8.33,2.32-7.17,2.32-7.17Z" transform="translate(-4781.84 -456.52)" style="fill:#f0f0f0"/><path d="M5118.62,526.52c.79,20.44-.63,80.5-.63,80.5l-54.39-1.17V547.71s-7.66-20.55,1.48-28.74c3.11-2.78,12.85-6.42,14.8-7.72l5.49-2.31s7.74,8.52,14.72,8.52,4.06-7.36,4.06-7.36l3.75,1.48s8.14,3.25,10.09,6.51" transform="translate(-4781.84 -456.52)" style="fill:#fff;stroke:#c1d7f1;stroke-linecap:round;stroke-linejoin:round;stroke-width:2px"/><polygon points="319.98 44.2 313.8 43.13 319.98 48.19 319.98 44.2" style="fill:#dfdfdf"/><polygon points="310.21 192.63 322.41 168.52 314.57 237.6 310.21 192.63" style="fill:#00456f"/><path d="M5064.15,568.53l-6.66,12c-2.19,3.95,8.12,13.89,23,22.2s28.8,11.84,31,7.89l6.66-12" transform="translate(-4781.84 -456.52)" style="fill:#87a4d6"/><path d="M5115.13,591.28c2.76,3.1,4,5.73,3.06,7.34-2.2,4-16.08.42-31-7.89s-25.23-18.24-23-22.2c.9-1.61,3.76-2,7.85-1.27" transform="translate(-4781.84 -456.52)" style="fill:#abbfe2"/><path d="M5115.77,590.71a16.66,16.66,0,0,1,3.24,4.47,5,5,0,0,1,.44,3.23,3.4,3.4,0,0,1-1,1.64,4.5,4.5,0,0,1-1.49.9,8.83,8.83,0,0,1-3,.51,21.21,21.21,0,0,1-2.78-.14,38.82,38.82,0,0,1-5.3-1.05,70,70,0,0,1-10-3.56c-3.24-1.4-6.39-3-9.48-4.67s-6.07-3.6-9-5.62a70.1,70.1,0,0,1-8.29-6.64,39.55,39.55,0,0,1-3.67-4,21.06,21.06,0,0,1-1.58-2.29,9,9,0,0,1-1.11-2.76,4.32,4.32,0,0,1,0-1.72,3.29,3.29,0,0,1,.87-1.67,4.94,4.94,0,0,1,2.95-1.29,16.48,16.48,0,0,1,5.47.41.78.78,0,0,1,.61.91.79.79,0,0,1-.85.62h0a16.86,16.86,0,0,0-4.91,0,3,3,0,0,0-1.72.82,1.59,1.59,0,0,0-.19,1.5,11,11,0,0,0,2.39,4,37.38,37.38,0,0,0,3.56,3.56,109.95,109.95,0,0,0,35.68,19.84,39.41,39.41,0,0,0,4.9,1.14,11.08,11.08,0,0,0,4.61-.07,1.51,1.51,0,0,0,1.13-.92,2.94,2.94,0,0,0-.21-1.85,16.42,16.42,0,0,0-2.62-4.12v0a.85.85,0,0,1,1.29-1.12Z" transform="translate(-4781.84 -456.52)" style="fill:#fff"/><path d="M5075.6,548,5069,559.92c-2.2,4,8.11,13.89,23,22.19s28.81,11.85,31,7.9l6.65-12" transform="translate(-4781.84 -456.52)" style="fill:#87a4d6"/><path d="M5126.79,571c2.61,3,3.73,5.53,2.85,7.11-2.2,4-16.08.41-31-7.89s-25.24-18.25-23-22.2c.83-1.48,3.29-1.91,6.84-1.43" transform="translate(-4781.84 -456.52)" style="fill:#abbfe2"/><path d="M5127.44,570.39a15.26,15.26,0,0,1,3.11,4.47,4.61,4.61,0,0,1,.27,3.24,3.58,3.58,0,0,1-1.07,1.54,5,5,0,0,1-1.48.81,13.42,13.42,0,0,1-5.63.29,39.18,39.18,0,0,1-5.22-1,69.75,69.75,0,0,1-9.85-3.49q-4.78-2.07-9.35-4.57t-8.83-5.5a71.51,71.51,0,0,1-8.21-6.46,42.7,42.7,0,0,1-3.66-3.82,16.3,16.3,0,0,1-2.93-4.68,4.8,4.8,0,0,1-.11-3.26,3.24,3.24,0,0,1,1.11-1.45,4.69,4.69,0,0,1,1.46-.71,12.74,12.74,0,0,1,5.5,0,.78.78,0,0,1-.19,1.54h0a12.2,12.2,0,0,0-4.69.3,1.74,1.74,0,0,0-1.21,1,2.81,2.81,0,0,0,.25,1.75,14.76,14.76,0,0,0,2.68,3.86,40.3,40.3,0,0,0,3.58,3.45A98.42,98.42,0,0,0,5099.67,569a95.26,95.26,0,0,0,18.49,8.07,35.8,35.8,0,0,0,4.82,1.13,11.63,11.63,0,0,0,4.56,0,1.75,1.75,0,0,0,1.21-.87,2.66,2.66,0,0,0-.12-1.77,15.34,15.34,0,0,0-2.48-4.07v0a.85.85,0,0,1,1.3-1.1Z" transform="translate(-4781.84 -456.52)" style="fill:#fff"/><path d="M5087,527.59l-6.65,11.95c-2.2,4,8.11,13.88,23,22.19s28.8,11.85,31,7.9l6.66-12" transform="translate(-4781.84 -456.52)" style="fill:#87a4d6"/><ellipse cx="5113.97" cy="542.63" rx="8.19" ry="30.93" transform="translate(-2629.83 4290.15) rotate(-60.89)" style="fill:#abbfe2;stroke:#fff;stroke-linecap:round;stroke-linejoin:round;stroke-width:3px"/><line x1="341.96" y1="106.93" x2="343.26" y2="107.65" style="fill:none;stroke:#fff;stroke-linecap:round;stroke-linejoin:round;stroke-width:4px"/><line x1="330.53" y1="127.46" x2="331.83" y2="128.18" style="fill:none;stroke:#fff;stroke-linecap:round;stroke-linejoin:round;stroke-width:4px"/><line x1="319.1" y1="147.99" x2="320.39" y2="148.71" style="fill:none;stroke:#fff;stroke-linecap:round;stroke-linejoin:round;stroke-width:4px"/><path d="M5074.47,546.61,5071.68,562c-13.46,1.7-20.55-4.16-20.55-4.16s3.83-32.5,15.35-39.77" transform="translate(-4781.84 -456.52)" style="fill:#fff;stroke:#c1d7f1;stroke-linecap:round;stroke-linejoin:round;stroke-width:2px"/><path d="M5071.25,563.05l1.33,9.77,35.25,12,.41,7.34c-21-1.95-48.69-7.39-50.23-12s-2-18.66-2-18.66a33.7,33.7,0,0,0,6.82,1.55A30.46,30.46,0,0,0,5071.25,563.05Z" transform="translate(-4781.84 -456.52)" style="fill:#f0f0f0"/><path d="M5071.25,563.05l.75,5.49-16-7.07A70.29,70.29,0,0,0,5071.25,563.05Z" transform="translate(-4781.84 -456.52)" style="fill:#dfdfdf"/><path d="M5098,474.76s4.06,8.33,14.71,6.29l-.67-4.55Z" transform="translate(-4781.84 -456.52)" style="fill:#dfdfdf"/><path d="M5107.83,584.8s15.77-2.37,17.49.75-2.41,5.54-2.87,6.86-1.39,4.69-3.52,4.6-11.05-4.94-11.05-4.94Z" transform="translate(-4781.84 -456.52)" style="fill:#f0f0f0"/><path d="M5114.71,469.24s.43-7.75-4.41-9.88-6.15.71-9.44.32-7.67-5.23-13.1-2.13c-6.76,3.86-2.39,8.59-4.91,10.72s-7.24,6.54-4.91,10.22,4.91,3.15,5.1,6.24-2.51,5,0,7.17,4.84,3.87,4.84,3.87l.2-6,2.52-2.52s-2.72-2.13-1.36-6.78,4.45-1.55,4.45-1.55l1.75.78s.89-6.7,4.38-4.19C5106,480,5122.45,478.54,5114.71,469.24Z" transform="translate(-4781.84 -456.52)" style="fill:#87a4d6"/><polyline points="823.2 262.05 872.57 262.05 916.51 306 930.59 306" style="fill:none;stroke:#264c7e;stroke-miterlimit:10;stroke-width:3px"/><polyline points="748.38 284.17 738.94 293.61 694.47 293.61 686.52 301.56" style="fill:none;stroke:#264c7e;stroke-miterlimit:10;stroke-width:3px"/><circle cx="684.81" cy="302.9" r="3.09" style="fill:none;stroke:#264c7e;stroke-miterlimit:10;stroke-width:3px"/><circle cx="677.14" cy="227.12" r="3.09" style="fill:none;stroke:#264c7e;stroke-miterlimit:10;stroke-width:3px"/><circle cx="719.89" cy="200.88" r="3.09" style="fill:none;stroke:#264c7e;stroke-miterlimit:10;stroke-width:3px"/><circle cx="933.69" cy="305.99" r="3.09" style="fill:none;stroke:#264c7e;stroke-miterlimit:10;stroke-width:3px"/><circle cx="840.88" cy="297.14" r="3.09" style="fill:none;stroke:#264c7e;stroke-miterlimit:10;stroke-width:3px"/><circle cx="863.37" cy="225.19" r="3.09" style="fill:none;stroke:#264c7e;stroke-miterlimit:10;stroke-width:3px"/><polyline points="819.14 240.34 828.82 240.34 843.98 225.19 859.45 225.19" style="fill:none;stroke:#264c7e;stroke-miterlimit:10;stroke-width:3px"/><polyline points="812.34 284.02 825.46 297.14 839.29 297.14" style="fill:none;stroke:#264c7e;stroke-miterlimit:10;stroke-width:3px"/><polyline points="737.38 262.05 726.2 262.05 691.26 227.12 680.23 227.12" style="fill:none;stroke:#264c7e;stroke-miterlimit:10;stroke-width:3px"/><polyline points="750.76 223.47 739.04 211.76 730.85 211.76 721.95 202.86" style="fill:none;stroke:#264c7e;stroke-miterlimit:10;stroke-width:3px"/><polygon points="101.14 482.82 138.04 482.82 134.04 524.95 105.14 524.95 101.14 482.82" style="fill:#95a6b1"/><path d="M4901.43,939.34s9-89.86-17.47-144.56" transform="translate(-4781.84 -456.52)" style="fill:none;stroke:#95a6b1;stroke-linecap:round;stroke-linejoin:round;stroke-width:2px"/><path d="M4905.32,788.27s2.77,8.83-1.23,14.57-13.23,6.23-13.23,6.23-2.76-8.83,1.23-14.57S4905.32,788.27,4905.32,788.27Z" transform="translate(-4781.84 -456.52)" style="fill:#b8e1e4"/><path d="M4875.3,778.8s9.08,1.78,12.22,8-.83,14.6-.83,14.6-9.08-1.78-12.22-8S4875.3,778.8,4875.3,778.8Z" transform="translate(-4781.84 -456.52)" style="fill:#b8e1e4"/><path d="M4888.35,807.28s-5.9,7.13-12.89,6.91-12.43-7.7-12.43-7.7,5.9-7.13,12.89-6.91S4888.35,807.28,4888.35,807.28Z" transform="translate(-4781.84 -456.52)" style="fill:#b8e1e4"/><path d="M4912.69,805.6s1.41,9.14-3.39,14.22-14,4.19-14,4.19-1.42-9.14,3.38-14.22S4912.69,805.6,4912.69,805.6Z" transform="translate(-4781.84 -456.52)" style="fill:#b8e1e4"/><path d="M4893.77,824s-6.9,6.16-13.78,4.9-11.15-9.46-11.15-9.46,6.9-6.17,13.78-4.91S4893.77,824,4893.77,824Z" transform="translate(-4781.84 -456.52)" style="fill:#b8e1e4"/><path d="M4917.12,823.19s.87,9.21-4.24,14-14.24,3.34-14.24,3.34-.86-9.21,4.24-14S4917.12,823.19,4917.12,823.19Z" transform="translate(-4781.84 -456.52)" style="fill:#b8e1e4"/><path d="M4897.13,840.41s-7.26,5.74-14.05,4.07-10.56-10.12-10.56-10.12,7.26-5.75,14-4.07S4897.13,840.41,4897.13,840.41Z" transform="translate(-4781.84 -456.52)" style="fill:#b8e1e4"/><path d="M4919.62,840.35s.86,9.21-4.24,14-14.24,3.34-14.24,3.34-.87-9.21,4.24-14S4919.62,840.35,4919.62,840.35Z" transform="translate(-4781.84 -456.52)" style="fill:#b8e1e4"/><path d="M4899.62,857.58s-7.25,5.74-14.05,4.07S4875,851.52,4875,851.52s7.25-5.74,14-4.07S4899.62,857.58,4899.62,857.58Z" transform="translate(-4781.84 -456.52)" style="fill:#b8e1e4"/><path d="M4922.59,859.84s.21,9.24-5.22,13.66-14.44,2.32-14.44,2.32-.21-9.25,5.22-13.66S4922.59,859.84,4922.59,859.84Z" transform="translate(-4781.84 -456.52)" style="fill:#b8e1e4"/><path d="M4901.42,875.6s-7.64,5.22-14.3,3.07-9.81-10.85-9.81-10.85,7.64-5.21,14.3-3.06S4901.42,875.6,4901.42,875.6Z" transform="translate(-4781.84 -456.52)" style="fill:#b8e1e4"/><path d="M4924.54,880.14s-.52,9.24-6.27,13.21-14.58,1.19-14.58,1.19.51-9.24,6.27-13.22S4924.54,880.14,4924.54,880.14Z" transform="translate(-4781.84 -456.52)" style="fill:#b8e1e4"/><path d="M4902.2,894.2s-8,4.6-14.49,1.94-8.94-11.58-8.94-11.58,8-4.6,14.5-1.94S4902.2,894.2,4902.2,894.2Z" transform="translate(-4781.84 -456.52)" style="fill:#b8e1e4"/><path d="M4925.48,898.81s-.72,9.22-6.56,13.07-14.6.86-14.6.86.72-9.22,6.56-13.07S4925.48,898.81,4925.48,898.81Z" transform="translate(-4781.84 -456.52)" style="fill:#b8e1e4"/><path d="M4902.84,912.37s-8.13,4.42-14.54,1.62-8.67-11.78-8.67-11.78,8.13-4.42,14.54-1.61S4902.84,912.37,4902.84,912.37Z" transform="translate(-4781.84 -456.52)" style="fill:#b8e1e4"/><path d="M4907.92,939.77s6.19-30,34.24-53.43" transform="translate(-4781.84 -456.52)" style="fill:none;stroke:#95a6b1;stroke-linecap:round;stroke-linejoin:round;stroke-width:2px"/><path d="M4960.7,896.67s-6.57,6.51-13.51,5.61-11.62-8.89-11.62-8.89,6.57-6.51,13.51-5.61S4960.7,896.67,4960.7,896.67Z" transform="translate(-4781.84 -456.52)" style="fill:#88cdd0"/><path d="M4959.57,868.94s1.12,9.19-3.85,14.11-14.14,3.74-14.14,3.74-1.12-9.19,3.84-14.11S4959.57,868.94,4959.57,868.94Z" transform="translate(-4781.84 -456.52)" style="fill:#88cdd0"/><path d="M4935.85,891s-8.88-2.59-11.44-9.1,2.15-14.47,2.15-14.47,8.88,2.6,11.45,9.11S4935.85,891,4935.85,891Z" transform="translate(-4781.84 -456.52)" style="fill:#88cdd0"/><path d="M4949.6,911.12s-7.15,5.87-14,4.32-10.73-9.94-10.73-9.94,7.15-5.87,14-4.32S4949.6,911.12,4949.6,911.12Z" transform="translate(-4781.84 -456.52)" style="fill:#88cdd0"/><path d="M4925.11,903.93s-8.82-2.8-11.24-9.36,2.49-14.42,2.49-14.42,8.82,2.8,11.23,9.37S4925.11,903.93,4925.11,903.93Z" transform="translate(-4781.84 -456.52)" style="fill:#88cdd0"/><path d="M4940.08,926.24s-7.15,5.88-14,4.33-10.74-9.94-10.74-9.94,7.15-5.87,14-4.32S4940.08,926.24,4940.08,926.24Z" transform="translate(-4781.84 -456.52)" style="fill:#88cdd0"/><path d="M4915.59,919.06s-8.81-2.8-11.23-9.37,2.48-14.41,2.48-14.41,8.82,2.8,11.24,9.37S4915.59,919.06,4915.59,919.06Z" transform="translate(-4781.84 -456.52)" style="fill:#88cdd0"/><path d="M4893.79,939.34s1.12-58.38-50.7-76.91" transform="translate(-4781.84 -456.52)" style="fill:none;stroke:#95a6b1;stroke-linecap:round;stroke-linejoin:round;stroke-width:2px"/><path d="M4847.29,838.39s7.56,5.34,7.87,12.33-6.73,13-6.73,13-7.56-5.33-7.87-12.32S4847.29,838.39,4847.29,838.39Z" transform="translate(-4781.84 -456.52)" style="fill:#88cdd0"/><path d="M4820.3,850.87s8.3-4.1,14.59-1,8.2,12.11,8.2,12.11-8.29,4.1-14.59,1S4820.3,850.87,4820.3,850.87Z" transform="translate(-4781.84 -456.52)" style="fill:#88cdd0"/><path d="M4847.35,864.78s-.36,9.25-6.05,13.32-14.55,1.42-14.55,1.42.36-9.24,6.05-13.31S4847.35,864.78,4847.35,864.78Z" transform="translate(-4781.84 -456.52)" style="fill:#88cdd0"/><path d="M4862.48,846.67s7.37,5.59,7.45,12.58-7.16,12.76-7.16,12.76-7.37-5.59-7.45-12.58S4862.48,846.67,4862.48,846.67Z" transform="translate(-4781.84 -456.52)" style="fill:#88cdd0"/><path d="M4861.62,873.08s-.36,9.24-6.05,13.31-14.55,1.42-14.55,1.42.36-9.24,6-13.31S4861.62,873.08,4861.62,873.08Z" transform="translate(-4781.84 -456.52)" style="fill:#88cdd0"/><path d="M4880.82,860.05s6.22,6.85,5,13.74-9.38,11.22-9.38,11.22-6.22-6.85-5-13.74S4880.82,860.05,4880.82,860.05Z" transform="translate(-4781.84 -456.52)" style="fill:#88cdd0"/><path d="M4875.26,886s-1.53,9.13-7.69,12.45-14.62-.43-14.62-.43,1.53-9.12,7.69-12.44S4875.26,886,4875.26,886Z" transform="translate(-4781.84 -456.52)" style="fill:#88cdd0"/><path d="M4894.34,877.2s5.1,7.72,2.85,14.34-11,9.65-11,9.65-5.09-7.73-2.84-14.35S4894.34,877.2,4894.34,877.2Z" transform="translate(-4781.84 -456.52)" style="fill:#88cdd0"/><path d="M4884.86,902s-2.91,8.78-9.51,11.12-14.38-2.67-14.38-2.67,2.91-8.78,9.51-11.11S4884.86,902,4884.86,902Z" transform="translate(-4781.84 -456.52)" style="fill:#88cdd0"/><path d="M4907.52,899.68s2.41,8.93-1.81,14.51-13.47,5.7-13.47,5.7-2.41-8.93,1.81-14.51S4907.52,899.68,4907.52,899.68Z" transform="translate(-4781.84 -456.52)" style="fill:#88cdd0"/><path d="M4890.71,920.25s-5.52,7.42-12.52,7.57-12.81-7.06-12.81-7.06,5.52-7.42,12.52-7.56S4890.71,920.25,4890.71,920.25Z" transform="translate(-4781.84 -456.52)" style="fill:#88cdd0"/><path d="M6034,657.81s-16.16,38.1-18.22,45.85S6005.5,794,6005.5,794l8.84-.62,22.18-86.72s29.18-46.05,31.55-52.38.36-13.91.36-13.91Z" transform="translate(-4781.84 -456.52)" style="fill:#264c7e"/><path d="M6045.69,689.93s11,41.8,12.14,44,51.42,30.28,51.42,30.28l5.32-8.87-40.81-38.25-7.8-58.58Z" transform="translate(-4781.84 -456.52)" style="fill:#264c7e"/><polygon points="1231.19 336.99 1231.22 346.09 1212.94 347.11 1213.79 344.56 1223.82 341.02 1225.6 337.71 1231.19 336.99" style="fill:#87a4d6"/><polygon points="1331.86 300.59 1339.79 304.26 1335.04 320.21 1331.23 318.9 1331.64 309.91 1328.05 305.99 1331.86 300.59" style="fill:#87a4d6"/><path d="M6024.38,571.31s-2.81-8.2-3.87-8.58-7.41,4.5-9.41,3-6.48-20.62-6.48-20.62,1.8-16.12,15.25-12.59,9.12,20.32,9.12,20.32l3.31,12.29" transform="translate(-4781.84 -456.52)" style="fill:#f0f0f0"/><path d="M6023,575.39s-6.87,15.16-6.08,22.2,6.94,9.73,10,18.39,2.47,43.69,2.47,43.69l40-21L6059,605.21" transform="translate(-4781.84 -456.52)" style="fill:none;stroke:#c1d7f1;stroke-linecap:round;stroke-linejoin:round;stroke-width:2px"/><g id="y3FgQ1"><path d="M6055,610.54c18.46,18.67,13.06,37.76,8.67,52.24a18.65,18.65,0,0,1-8.66,8.9,61.07,61.07,0,0,1-18.13,5.39c-13.15,1.73-23.23.07-35.11-10.83L5977.45,644c10-10.81,14.14-23.54,16-37.3,13.62-3.1,25.78-8.67,35.68-19.6Z" transform="translate(-4781.84 -456.52)" style="fill:#ededed;mix-blend-mode:multiply"/></g><g id="y3FgQ1-2" data-name="y3FgQ1"><path d="M6050.19,606.21c18.46,18.67,13.06,37.76,8.67,52.23a18.63,18.63,0,0,1-8.66,8.91,61.07,61.07,0,0,1-18.13,5.39c-13.15,1.72-23.23.07-35.11-10.83l-24.28-22.23c10-10.81,14.14-23.54,16-37.3,13.62-3.1,25.78-8.68,35.68-19.6Z" transform="translate(-4781.84 -456.52)" style="fill:#87a4d6"/></g><path d="M6014,635.64a7.16,7.16,0,1,1,11.71-3.5l7.36,6.68a3.31,3.31,0,1,1-4.45,4.9L6021.3,637A7.13,7.13,0,0,1,6014,635.64Z" transform="translate(-4781.84 -456.52)" style="fill:#fff"/><path d="M6038.79,572.86c-4.27,1.73-9.71,10.84-3.51,22.37s9.32,14.19,9.32,14.19l17.32-6.9-1.87-6.55" transform="translate(-4781.84 -456.52)" style="fill:#fff;stroke:#c1d7f1;stroke-linecap:round;stroke-linejoin:round;stroke-width:2px"/><polygon points="1284.12 202 1264.05 234.58 1267.42 247.21 1284.12 202" style="fill:#00456f"/><path d="M6015.07,527.65s-18.9-.55-18.33,11.2,15.8,5.38,18.17,6.39,5.94,7.44,7.14,7.23,2-5,3.82-4.47-.06,18.32,2.19,19.33,10.09-1.21,11.83,1.1,5.67,30.18,13.37,28.32,26.88-13.53,13.31-27.6-20.24-4.88-23.7-21.24S6034.71,522,6015.07,527.65Z" transform="translate(-4781.84 -456.52)" style="fill:#87a4d6"/><path d="M6056.15,633.88l-14.22,30s-4.28,9.64-7.16,11.42-3.65-.08-4.74-1.19-6.82,1.16-5.41-3.13,11.08-8.77,11.08-8.77l11.55-33.5" transform="translate(-4781.84 -456.52)" style="fill:#f0f0f0"/><path d="M6046.7,609.64l.55,22.32s.63,3.58,3.29,4.25c4.93,1.23,5.75-3.29,5.75-3.29l3.42-28.35Z" transform="translate(-4781.84 -456.52)" style="fill:#f0f0f0"/></g></g></svg>